<svg xmlns="http://www.w3.org/2000/svg" width="317" height="265" viewBox="0 0 317 265"><g><g opacity=".41"><g opacity=".41"><path fill="#c5d9ff" d="M316.845 168.956a91.071 91.071 0 0 0-.417-15.525c-2.741-24.192-15.152-47.004-33.42-63.1-6.517-5.742-13.932-10.887-18.173-18.467-7.142-12.764-6.601-27.435-15.466-40.04-8.875-12.618-21.808-22.459-36.393-27.513-43.486-15.068-104.37 9.467-98.888 61.862.02.187.04.461.065.806.728 10.884-7.814 20.035-18.685 20.292-40.123.953-74.66 31.886-82.05 71.071-4.752 25.2 3.03 52.821 21.464 70.648 13.76 13.308 32.222 20.617 50.693 25.641 37.036 10.072 76.008 12.183 114.195 8.332 35.745-3.605 73.449-13.88 96.566-41.382 12.332-14.67 19.398-33.482 20.509-52.625z"/></g></g><g opacity=".88"><g opacity=".88"><path fill="#c5d9ff" d="M283.85 171.424c.236-4.055.13-8.128-.326-12.161-2.148-18.952-11.87-36.822-26.18-49.432-5.105-4.5-10.915-8.528-14.237-14.467-5.596-10-5.172-21.492-12.116-31.366-6.953-9.886-17.084-17.594-28.51-21.553-34.067-11.804-81.761 7.416-77.467 48.46.016.148.032.362.05.633.57 8.526-6.12 15.694-14.637 15.896-31.43.746-58.486 24.979-64.275 55.676-3.724 19.74 2.373 41.378 16.813 55.344 10.78 10.425 25.242 16.152 39.713 20.087 29.013 7.89 59.543 9.544 89.457 6.528 28.002-2.825 57.54-10.875 75.65-32.418 9.66-11.493 15.195-26.23 16.066-41.227z"/></g></g><g opacity=".31"><g opacity=".31"><path fill="#c5d9ff" d="M308.235 39.01c0 5.42-4.394 9.813-9.813 9.813-5.419 0-9.813-4.393-9.813-9.813 0-5.42 4.394-9.813 9.813-9.813 5.42 0 9.813 4.394 9.813 9.813z"/></g></g><g opacity=".31"><g opacity=".31"><path fill="#c5d9ff" d="M94.284 27.632c0 6.284-5.094 11.378-11.378 11.378s-11.379-5.094-11.379-11.378 5.095-11.38 11.38-11.38c6.283 0 11.377 5.096 11.377 11.38z"/></g></g><g opacity=".31"><g opacity=".31"><path fill="#c5d9ff" d="M29.457 246.2c0 8.116-6.579 14.695-14.695 14.695-8.117 0-14.696-6.579-14.696-14.695s6.579-14.696 14.696-14.696c8.116 0 14.695 6.58 14.695 14.696z"/></g></g><g><path fill=#EC4646 d="M182.802 78.161c0 28.766-23.32 52.085-52.085 52.085-28.766 0-52.085-23.319-52.085-52.085 0-28.766 23.319-52.085 52.085-52.085 28.766 0 52.085 23.32 52.085 52.085z"/></g><g><path fill="#243762" d="M166.882 115.67a.497.497 0 0 1-.352-.849c9.745-9.744 15.11-22.7 15.11-36.478 0-13.78-5.365-26.734-15.11-36.478-9.743-9.743-22.698-15.11-36.477-15.11-13.78 0-26.734 5.367-36.478 15.11a.497.497 0 1 1-.704-.704c9.932-9.931 23.137-15.401 37.182-15.401 14.045 0 27.25 5.47 37.182 15.4 9.93 9.933 15.4 23.138 15.4 37.183 0 14.046-5.47 27.25-15.4 37.18a.496.496 0 0 1-.353.147z"/></g><g><path fill="#fff" d="M170.352 78.161c0 21.89-17.745 39.636-39.635 39.636-21.89 0-39.635-17.746-39.635-39.636 0-21.89 17.746-39.635 39.635-39.635 21.89 0 39.635 17.745 39.635 39.635z"/></g><g><path fill="#243762" d="M130.717 118.294c-22.13 0-40.133-18.003-40.133-40.133 0-22.129 18.003-40.133 40.133-40.133a.498.498 0 0 1 0 .995c-21.58 0-39.138 17.558-39.138 39.138 0 21.581 17.558 39.138 39.138 39.138a.498.498 0 0 1 0 .995z"/></g><g><path fill="#00E2E4" d="M140.985 85.736h-10.782a4.017 4.017 0 0 1-4.012-4.012V66.776a3.483 3.483 0 0 1 6.967 0V78.77h7.827a3.483 3.483 0 0 1 0 6.967z"/></g><g><path fill="#00E2E4" d="M49.852 96.253l56.108 56.107c10.974 10.976 28.77 10.976 39.745 0l6.708-6.708a6.486 6.486 0 0 0 0-9.171l-22.896-22.896a6.485 6.485 0 0 0-9.172 0l-11.448 11.447a2.291 2.291 0 0 1-3.242 0L77.89 97.268a2.263 2.263 0 0 1 0-3.201l11.29-11.29a6.484 6.484 0 0 0 0-9.17L65.663 50.092a6.487 6.487 0 0 0-9.092-.08l-6.37 6.152c-11.304 10.916-11.46 28.978-.35 40.089z"/></g><g><path fill="#b69df4" d="M51.608 57.295L83.135 88.82l1.081-1.08 4.962-4.963a6.482 6.482 0 0 0 0-9.171L65.664 50.092a6.487 6.487 0 0 0-9.092-.08l-6.37 6.152z"/></g><g><path fill="#243762" d="M83.136 89.526l-31.86-31.861-1.826-1.467 6.776-6.544c2.723-2.628 7.114-2.59 9.79.085L89.53 73.255a6.99 6.99 0 0 1 0 9.876zM50.954 56.13l1.007.812 31.175 31.176 5.691-5.691a5.95 5.95 0 0 0 1.754-4.235 5.951 5.951 0 0 0-1.754-4.234L65.311 50.443c-2.294-2.295-6.059-2.327-8.393-.073z"/></g><g><path fill="#b69df4" d="M115.743 120.349l31.527 31.527 1.081-1.081 4.962-4.962a6.483 6.483 0 0 0 0-9.172L129.8 113.146a6.486 6.486 0 0 0-9.092-.08l-6.37 6.152z"/></g><g><path fill="#243762" d="M147.27 152.58l-31.86-31.86-1.825-1.467 6.776-6.545c2.723-2.628 7.114-2.59 9.79.085l23.515 23.517a6.934 6.934 0 0 1 2.045 4.937 6.936 6.936 0 0 1-2.045 4.938zm-32.181-33.396l1.007.813 31.175 31.175 5.69-5.691a5.95 5.95 0 0 0 1.755-4.234c0-1.6-.623-3.103-1.754-4.234l-23.516-23.516c-2.294-2.293-6.06-2.327-8.393-.073z"/></g><g><path fill="#ecf1f7" d="M54.023 53.577l19.21 19.21"/></g><g><path fill="#243762" d="M73.233 73.285a.498.498 0 0 1-.352-.146l-19.21-19.21a.499.499 0 0 1 .705-.704l19.21 19.21a.499.499 0 0 1-.353.85z"/></g><g><path fill="#ecf1f7" d="M130.436 129.99l19.21 19.21"/></g><g><path fill="#243762" d="M149.647 149.697a.498.498 0 0 1-.352-.146l-19.21-19.209a.498.498 0 1 1 .703-.705l19.21 19.21a.499.499 0 0 1-.351.85z"/></g><g><path fill="#00E2E4" d="M233.944 247.895l-73.552-10.879c-8.316-1.23-14.06-8.97-12.83-17.285L173.94 41.388c1.23-8.317 8.97-14.061 17.286-12.832l73.551 10.879c8.317 1.23 14.062 8.97 12.832 17.286L251.23 235.065c-1.23 8.316-8.97 14.06-17.286 12.83z"/></g><g><path fill="#ecf1f7" d="M246.094 227.129l-91.318-13.508 24.91-168.415 91.318 13.507z"/></g><g><path fill=#EC4646 d="M269.135 71.35l-91.318-13.506 1.869-12.638 91.318 13.507z"/></g><g><path fill="#ecf1f7" d="M198.016 236.726a5.913 5.913 0 0 1-3.913-2.342 5.92 5.92 0 0 1-1.111-4.426 5.928 5.928 0 0 1 2.344-3.913 5.91 5.91 0 0 1 4.424-1.11 5.925 5.925 0 0 1 3.914 2.343 5.92 5.92 0 0 1 1.109 4.425 5.968 5.968 0 0 1-6.767 5.023zm-2.087-9.882a4.93 4.93 0 0 0-1.952 3.26 4.93 4.93 0 0 0 .924 3.686 4.934 4.934 0 0 0 3.26 1.952 4.968 4.968 0 0 0 5.638-4.186 4.932 4.932 0 0 0-.925-3.684 4.926 4.926 0 0 0-3.26-1.952 4.92 4.92 0 0 0-3.685.924z"/></g><g><path fill="#ecf1f7" d="M211.806 43.576a1.906 1.906 0 0 1-1.259-.753 1.911 1.911 0 0 1 .396-2.681 1.884 1.884 0 0 1 1.423-.357c.506.075.953.342 1.258.753a1.918 1.918 0 0 1-1.818 3.038zm-.27-2.634a.905.905 0 0 0-.361.604.916.916 0 0 0 .776 1.046.912.912 0 0 0 .684-.172.915.915 0 0 0 .362-.604.912.912 0 0 0-.172-.684.91.91 0 0 0-.741-.373.914.914 0 0 0-.548.183z"/></g><g><path fill="#ecf1f7" d="M241.465 47.963l-23.298-3.446a1.9 1.9 0 0 1-1.258-.754 1.903 1.903 0 0 1-.358-1.422c.076-.506.343-.953.754-1.258a1.913 1.913 0 0 1 1.423-.358l23.297 3.447c.507.074.953.341 1.26.753.304.411.431.916.356 1.422a1.896 1.896 0 0 1-.754 1.258 1.9 1.9 0 0 1-1.422.358zm-23.929-5.476a.92.92 0 0 0 .777 1.046l23.297 3.445a.92.92 0 0 0 .875-1.46.915.915 0 0 0-.605-.362l-23.298-3.446a.923.923 0 0 0-1.046.777z"/></g><g><path fill="#c5d9ff" d="M246.47 175.599l-63.701-9.422a1.9 1.9 0 0 0-2.156 1.6l-2.445 16.527a1.899 1.899 0 0 0 1.6 2.155l54.463 8.056 5.61 7.739 1-6.761 2.63.389a1.899 1.899 0 0 0 2.156-1.6l2.445-16.527a1.9 1.9 0 0 0-1.601-2.156z"/></g><g><path fill="#243762" d="M234.231 195.013a.45.45 0 0 1-.073-.006l-54.463-8.057a2.362 2.362 0 0 1-1.573-.94 2.387 2.387 0 0 1-.447-1.78l2.445-16.526c.193-1.307 1.411-2.225 2.721-2.02l14.721 2.179a.498.498 0 1 1-.145.984l-14.722-2.18a1.408 1.408 0 0 0-1.59 1.184l-2.445 16.525a1.394 1.394 0 0 0 1.18 1.59l54.463 8.057a.498.498 0 0 1-.072.99z"/></g><g><path fill="#c5d9ff" d="M256.6 107.12l-63.702-9.422a1.899 1.899 0 0 0-2.156 1.6l-2.445 16.527a1.899 1.899 0 0 0 1.6 2.155l54.463 8.056 5.61 7.738 1-6.76 2.63.39a1.897 1.897 0 0 0 2.155-1.6l2.446-16.528a1.9 1.9 0 0 0-1.601-2.156z"/></g><g><path fill="#243762" d="M250.284 135.056l-6.204-8.558-54.256-8.025a2.398 2.398 0 0 1-2.019-2.721.502.502 0 0 1 .565-.42c.271.04.46.294.42.566-.056.37.037.739.261 1.04.222.3.548.496.92.55l54.668 8.087 5.018 6.92.894-6.045 3.122.46c.37.055.74-.037 1.04-.26.3-.223.495-.55.55-.92l1.625-10.994a.499.499 0 0 1 .986.146l-1.627 10.994a2.38 2.38 0 0 1-.942 1.574c-.514.38-1.147.54-1.779.446l-2.137-.317z"/></g><g><path fill=#EC4646 d="M175.967 128.414l63.702 9.423a1.899 1.899 0 0 1 1.6 2.155l-2.444 16.526a1.899 1.899 0 0 1-2.156 1.601l-54.462-8.056-7.611 5.784 1-6.76-2.63-.39a1.899 1.899 0 0 1-1.6-2.156l2.446-16.526a1.898 1.898 0 0 1 2.155-1.6z"/></g><g><path fill="#243762" d="M236.952 158.638c-.118 0-.236-.01-.355-.027l-33.999-5.03a.495.495 0 0 1-.418-.563.494.494 0 0 1 .565-.42l33.997 5.029a1.4 1.4 0 0 0 1.591-1.181l2.444-16.527a1.404 1.404 0 0 0-1.18-1.591.497.497 0 1 1 .145-.983 2.398 2.398 0 0 1 2.02 2.72l-2.445 16.527a2.38 2.38 0 0 1-.942 1.573c-.417.31-.912.473-1.423.473z"/></g><g><path fill="#fff" d="M246.094 227.129l-91.318-13.508 2.292-15.495 91.318 13.507z"/></g><g><path fill="#c5d9ff" d="M170.544 207.898a5.554 5.554 0 1 1-10.99-1.625 5.554 5.554 0 0 1 10.99 1.625z"/></g><g opacity=".33"><g opacity=".33"><path fill="#af9cda" d="M237.165 222.896l-59.181-8.754a4.912 4.912 0 0 1-3.253-1.946 4.926 4.926 0 0 1-.922-3.677c.4-2.7 2.926-4.58 5.624-4.173l59.181 8.753a4.958 4.958 0 0 1 4.175 5.623 4.962 4.962 0 0 1-4.898 4.23 4.73 4.73 0 0 1-.727-.056zm.145-.983a3.968 3.968 0 0 0 4.494-3.337 3.932 3.932 0 0 0-.738-2.937 3.92 3.92 0 0 0-2.598-1.555l-59.18-8.755a3.964 3.964 0 0 0-4.495 3.336 3.931 3.931 0 0 0 .738 2.938 3.92 3.92 0 0 0 2.598 1.555z"/></g></g><g><path fill="#fff" d="M185.08 54.269a1.95 1.95 0 0 1-1.643-2.213c.076-.515.35-.97.767-1.28a1.932 1.932 0 0 1 1.447-.363 1.953 1.953 0 0 1 1.643 2.213 1.954 1.954 0 0 1-2.214 1.643zm-.282-2.694a.95.95 0 0 0-.198 1.334.954.954 0 0 0 1.531-1.136.945.945 0 0 0-.768-.385c-.203 0-.4.064-.565.187z"/></g><g><path fill="#fff" d="M190.467 55.066a1.95 1.95 0 0 1-1.643-2.213 1.955 1.955 0 0 1 2.213-1.643c.515.077.969.348 1.279.767.311.418.44.932.364 1.446a1.94 1.94 0 0 1-.767 1.28 1.938 1.938 0 0 1-1.446.363zm-.658-2.068a.947.947 0 0 0 .177.708.945.945 0 0 0 .626.375.947.947 0 0 0 1.082-.803.947.947 0 0 0-.802-1.083.955.955 0 0 0-1.083.803z"/></g><g><path fill="#fff" d="M195.751 55.848a1.953 1.953 0 0 1-1.643-2.214 1.956 1.956 0 0 1 2.213-1.643 1.953 1.953 0 0 1 1.643 2.214 1.953 1.953 0 0 1-2.213 1.643zm-.283-2.694a.943.943 0 0 0-.374.626.94.94 0 0 0 .176.707.948.948 0 0 0 .626.376.959.959 0 0 0 1.083-.804.954.954 0 0 0-1.51-.905z"/></g><g><path fill="#243762" d="M270.373 72.031a.597.597 0 0 1-.073-.005l-84.531-12.503a.496.496 0 1 1 .147-.984l84.529 12.502a.498.498 0 0 1-.072.99z"/></g><g><path fill="#fff" d="M235.134 179.406a.45.45 0 0 1-.073-.006l-45.102-6.67a.498.498 0 1 1 .146-.984l45.1 6.671a.496.496 0 0 1-.071.99z"/></g><g><path fill="#fff" d="M208.433 180.954a.45.45 0 0 1-.073-.006l-19.197-2.839a.496.496 0 0 1-.42-.564.492.492 0 0 1 .566-.419l19.196 2.84a.496.496 0 0 1-.072.988z"/></g><g><path fill="#fff" d="M201.964 185.144a.468.468 0 0 1-.073-.006l-13.473-1.992a.497.497 0 1 1 .146-.982l13.473 1.992a.497.497 0 0 1-.073.988z"/></g><g><path fill="#fff" d="M234.338 184.786a.468.468 0 0 1-.073-.006l-19.84-2.933a.497.497 0 0 1-.418-.565.493.493 0 0 1 .565-.419l19.839 2.934a.498.498 0 1 1-.073.989z"/></g><g><path fill="#fff" d="M229.627 141.978a.45.45 0 0 1-.073-.006l-45.103-6.67a.496.496 0 0 1-.419-.564.49.49 0 0 1 .566-.42l45.101 6.671a.496.496 0 0 1-.072.99z"/></g><g><path fill="#fff" d="M202.926 143.527a.45.45 0 0 1-.073-.006l-19.197-2.84a.498.498 0 0 1 .146-.983l19.196 2.84a.497.497 0 1 1-.072.989z"/></g><g><path fill="#fff" d="M222.872 151.625a.5.5 0 0 1-.077-.006l-38.925-6.039a.497.497 0 0 1 .152-.983l38.925 6.038a.497.497 0 0 1-.075.99z"/></g><g><path fill="#fff" d="M228.831 147.36a.45.45 0 0 1-.073-.007l-19.839-2.934a.497.497 0 1 1 .145-.984l19.84 2.935a.497.497 0 0 1-.073.99z"/></g><g><path fill=#EC4646 d="M184.148 66.287l63.702 9.422a1.898 1.898 0 0 1 1.6 2.156l-2.444 16.526a1.898 1.898 0 0 1-2.156 1.6l-54.462-8.056-7.61 5.784 1-6.76-2.63-.39a1.899 1.899 0 0 1-1.6-2.156l2.444-16.526a1.896 1.896 0 0 1 2.155-1.6z"/></g><g><path fill="#243762" d="M247.006 94.889a.497.497 0 0 1-.492-.57l2.444-16.527a1.392 1.392 0 0 0-.261-1.04 1.388 1.388 0 0 0-.92-.55l-39.551-5.85a.497.497 0 1 1 .146-.984l39.55 5.849a2.38 2.38 0 0 1 1.574.943c.382.513.54 1.145.447 1.778l-2.445 16.526a.498.498 0 0 1-.492.425z"/></g><g><path fill="#fff" d="M237.808 79.852a.597.597 0 0 1-.073-.005l-45.103-6.672a.498.498 0 1 1 .147-.984l45.1 6.67a.498.498 0 0 1-.071.99z"/></g><g><path fill="#fff" d="M211.106 81.4a.45.45 0 0 1-.073-.006l-19.197-2.839a.498.498 0 0 1 .146-.984l19.196 2.84a.498.498 0 0 1-.072.99z"/></g><g><path fill="#fff" d="M231.053 89.497a.5.5 0 0 1-.077-.006l-38.925-6.039a.497.497 0 1 1 .153-.983l38.924 6.04a.497.497 0 0 1-.075.988z"/></g><g><path fill="#fff" d="M237.012 85.231a.597.597 0 0 1-.073-.004l-19.84-2.935a.497.497 0 0 1 .146-.984l19.839 2.933a.499.499 0 0 1-.072.99z"/></g><g><path fill="#fff" d="M245.303 111.56a.597.597 0 0 1-.073-.004l-45.103-6.672a.497.497 0 1 1 .147-.984l45.1 6.672a.497.497 0 0 1-.071.989z"/></g><g><path fill="#fff" d="M218.602 113.11a.45.45 0 0 1-.073-.007l-19.197-2.839a.498.498 0 0 1 .146-.985l19.196 2.84a.497.497 0 1 1-.072.99z"/></g><g><path fill="#fff" d="M212.133 117.299a.448.448 0 0 1-.073-.005l-13.473-1.993a.499.499 0 0 1 .146-.984l13.472 1.992a.498.498 0 0 1-.072.99z"/></g><g><path fill="#fff" d="M244.507 116.94a.597.597 0 0 1-.073-.005l-19.84-2.934a.498.498 0 0 1 .146-.985l19.839 2.935a.497.497 0 0 1-.072.99z"/></g><g><path fill=#EC4646 d="M153.592 232.6L51.418 244.114a3.578 3.578 0 0 1-3.954-3.154l-7.375-65.456a.188.188 0 0 1 .166-.208l108.883-12.267a.189.189 0 0 1 .209.166l7.377 65.479a3.553 3.553 0 0 1-3.132 3.928z"/></g><g><path fill="#243762" d="M46.97 241.014l-7.376-65.455a.689.689 0 0 1 .605-.76l108.883-12.267a.684.684 0 0 1 .76.605l7.377 65.48a4.029 4.029 0 0 1-.859 2.978 4.024 4.024 0 0 1-2.713 1.5L51.473 244.608a4.081 4.081 0 0 1-4.504-3.594zm-6.352-65.26l7.341 65.149a3.072 3.072 0 0 0 3.403 2.714l102.174-11.511a3.04 3.04 0 0 0 2.046-1.131 3.03 3.03 0 0 0 .646-2.246l-7.34-65.173z"/></g><g opacity=".29"><g opacity=".29"><path fill="#243762" d="M148.804 232.6l-92.39 11.513c-1.963.22 28.63-39.02 28.409-40.983l-44.734-27.627a.188.188 0 0 1 .166-.208l108.883-12.267a.189.189 0 0 1 .209.166l-37.248 36.863c.219 1.949 38.654 32.324 36.705 32.544z"/></g></g><g><path fill="#f7a9b4" d="M40.255 175.295l45.026-44.53a8.178 8.178 0 0 1 10.06-1.15l53.519 33.24a.113.113 0 0 1-.046.209L40.068 175.316z"/></g><g><path fill="#243762" d="M40.124 175.81l-.083-.732-.136-.137.11-.107-.003-.012.015-.002 44.905-44.41a8.648 8.648 0 0 1 10.671-1.216l53.52 33.239a.61.61 0 0 1-.251 1.125zm45.508-44.691l-44.007 43.52 106.032-11.945-52.578-32.655a7.66 7.66 0 0 0-9.447 1.08z"/></g><g><path fill="#c5d9ff" d="M40.255 175.295l45.026-44.53a8.178 8.178 0 0 1 10.06-1.15l53.519 33.24a.113.113 0 0 1-.046.209L40.068 175.316z"/></g><g><path fill="#f7a9b4" d="M90.26 196.267l-33.846 47.092 92.39-10.41-43.477-38.38c-4.535-4.003-11.536-3.214-15.066 1.698z"/></g><g><path fill="#243762" d="M55.356 243.979l34.5-48.002a10.737 10.737 0 0 1 7.507-4.397 10.748 10.748 0 0 1 8.295 2.616l44.316 39.123zm42.117-51.41a9.74 9.74 0 0 0-6.808 3.989l-33.192 46.18 90.16-10.158-42.635-37.637a9.742 9.742 0 0 0-7.525-2.374z"/></g><g><path fill="#fff" d="M45.752 143.035l71.165-8.018c4.665-.526 8.816 2.331 9.273 6.38l4.574 40.597-19.79 18.19-26.152 2.946-25.83-16.157-4.431-39.332z"/></g><g><path fill="#243762" d="M84.706 203.645l-26.182-16.376-4.428-39.308-3.697-3.057 4.626 2.42 4.434 39.356 25.48 15.937 25.817-2.91 19.485-17.91-4.546-40.344c-.204-1.813-1.215-3.43-2.845-4.55-1.653-1.138-3.739-1.63-5.877-1.391l-68.587 7.728-1.068-.882 69.543-7.835c2.376-.267 4.702.286 6.553 1.559 1.872 1.287 3.033 3.156 3.271 5.26l4.602 40.847-20.097 18.47zm-37.282-60.296l2.975 1.555-2.013-1.664z"/></g><g opacity=".29"><g opacity=".29"><path fill="#243762" d="M90.26 192.204l-33.846 51.154 92.39-10.409-43.477-42.443c-4.535-4.003-11.536-3.215-15.066 1.698z"/></g></g><g><path fill=#EC4646 d="M90.26 196.267l-33.846 47.092 92.39-10.41-43.477-38.38c-4.535-4.003-11.536-3.214-15.066 1.698z"/></g><g><path fill="#243762" d="M55.356 243.979l34.5-48.002a10.737 10.737 0 0 1 7.507-4.397 10.748 10.748 0 0 1 8.295 2.616l44.316 39.123zm42.117-51.41a9.74 9.74 0 0 0-6.808 3.989l-33.192 46.18 90.16-10.158-42.635-37.637a9.742 9.742 0 0 0-7.525-2.374z"/></g><g opacity=".35"><g opacity=".35"><path fill="#ecf1f7" d="M93.54 206.69l-24.856 34.584 67.85-7.645-31.929-28.186c-3.331-2.94-8.472-2.36-11.065 1.246z"/></g></g><g><path fill="#f7a9b4" d="M40.295 175.384l44.527 27.746"/></g><g><path fill="#243762" d="M84.56 203.553l-44.527-27.746.526-.846 44.527 27.747z"/></g><g><path fill="#f7a9b4" d="M149.336 163.099l-37.237 36.958"/></g><g><path fill="#243762" d="M112.448 200.41l-.7-.706 37.237-36.959.7.706z"/></g><g><path fill="#ecf1f7" d="M56.531 165.769l-12.42 1.399-1.997-17.72a5.966 5.966 0 0 1 5.26-6.595l.565-.063a5.962 5.962 0 0 1 6.595 5.259z"/></g><g><path fill="#243762" d="M43.672 167.718l-2.052-18.215a6.419 6.419 0 0 1 1.37-4.753 6.418 6.418 0 0 1 4.328-2.393l.566-.062a6.432 6.432 0 0 1 4.752 1.369 6.416 6.416 0 0 1 2.393 4.329l2.052 18.213zm4.323-24.434l-.565.064a5.426 5.426 0 0 0-3.663 2.023 5.434 5.434 0 0 0-1.158 4.021l1.941 17.225 11.43-1.287-1.94-17.226a5.435 5.435 0 0 0-2.025-3.663 5.425 5.425 0 0 0-4.02-1.157z"/></g><g><path fill="#243762" d="M64.964 156.543a.497.497 0 0 1-.056-.992l51.563-5.81a.498.498 0 1 1 .112.99L65.02 156.54a.559.559 0 0 1-.057.003z"/></g><g><path fill="#243762" d="M66.94 174.072a.5.5 0 0 1-.057-.993l51.562-5.809a.499.499 0 0 1 .112.99l-51.562 5.81a.54.54 0 0 1-.056.002z"/></g><g><path fill="#243762" d="M65.94 165.206a.498.498 0 0 1-.056-.992l22.282-2.51a.5.5 0 0 1 .55.44.495.495 0 0 1-.438.548l-22.282 2.511a.544.544 0 0 1-.057.003z"/></g><g><path fill="#243762" d="M94.056 162.038a.497.497 0 0 1-.056-.993l23.448-2.64a.497.497 0 1 1 .111.989l-23.446 2.641a.559.559 0 0 1-.057.003z"/></g><g><path fill="#243762" d="M68.059 184.013a.499.499 0 0 1-.056-.993l22.283-2.51a.498.498 0 1 1 .112.989l-22.282 2.51a.544.544 0 0 1-.057.004z"/></g></g></svg>