<svg xmlns="http://www.w3.org/2000/svg" width="50" height="48" viewBox="0 0 50 48"><g><g><path fill="#414042" d="M47.196 14.296a2.646 2.646 0 0 1 2.642 2.644v8.53a2.646 2.646 0 0 1-2.643 2.643h-3.682v2.004c0 .672-.348 1.263-.871 1.607.828 1.68 1.386 3.828.806 7.354.175.629.279 1.29.298 1.975a.93.93 0 0 1-.258.709c-.247.252-.547.275-.756.275l-.136-.001h-.556c-.488 3.032-3.068 5.317-6.15 5.317-3.08 0-5.66-2.285-6.147-5.317h-15.25a7.083 7.083 0 0 1-.118.726.835.835 0 0 1-.41.559c-.231.125-.462.096-.705.039l-.817-.187a5.533 5.533 0 0 1-2.267 2.782 5.536 5.536 0 0 1-4.212.71 5.592 5.592 0 0 1-4.303-5.973l-1.035-.238a.73.73 0 0 1-.547-.874 7.334 7.334 0 0 1 7.248-5.685l1.105-3.815a.728.728 0 1 1 1.4.405l-1.154 3.989 5.46 6.104h1.31c-2.261-5.311-3.732-10.56-1.154-18.422H12.22l-1.448 5.006a.73.73 0 0 1-1.402-.406l1.332-4.6h-.87a.729.729 0 0 1-.727-.73v-3.795c0-.188 0-.76.453-1.087.46-.332.99-.157 1.458 0l5.104 1.687 4.425-.358 1.818-1.564c0-1.208.12-2.271.364-3.172a5.063 5.063 0 0 1-3.998-5.8h-.496a.73.73 0 0 1-.73-.73C17.505 3.13 20.28.3 23.693.3c3.41 0 6.185 2.83 6.185 6.309 0 1.933-.663 3.609-1.81 4.788.978.682 2.116 1.822 3.09 3.725 1.256 2.45 1.928 5.568 1.996 9.268.043.876-.022 1.628-.197 2.266h3.156V16.94a2.646 2.646 0 0 1 2.642-2.644zM9.4 44.72a4.098 4.098 0 0 0 1.606-1.876l-7.91-1.821a4.131 4.131 0 0 0 3.194 4.22 4.09 4.09 0 0 0 3.11-.523zm3.649-2.904c.009-.081.015-.163.019-.244l-5.556-6.213c-2.574-.137-4.93 1.45-5.805 3.847zM24.065 29.11c.28-.745.898-1.123 1.83-1.123l2.619-.002c1.219-.001 2.046-.25 2.529-.76.415-.436.634-1.124.662-2.093h-7.148c-1.045.125-3.374.886-3.374 5.153v3.775h2.67v-2.751c0-.952 0-1.641.212-2.2zm-3.612 6.409c-.308 0-.886.064-1.298.494-.276.289-.444.707-.503 1.247h5.2v-1.741zm11.22-11.846c-.326-7.762-3.415-10.484-4.82-11.323a6.085 6.085 0 0 1-1.702.675c-.302.089-.612.15-.922.182a8.563 8.563 0 0 0-.352 1.848c.769-.491 1.639-.593 2.447-.27.885.355 1.516 1.183 1.606 2.11.102 1.047-.47 2.057-1.571 2.772l-2.016 1.308c.195.943.432 1.86.699 2.698zM24.162 5.879c.023 0 .045 0 .067.002 1.21.11 1.464.926 1.464 1.59v3.837c1.683-.772 2.726-2.525 2.726-4.7 0-2.675-2.121-4.851-4.727-4.851-2.366 0-4.331 1.792-4.675 4.122zm-4.044 2.298a3.6 3.6 0 0 0 3.589 3.598h.005c.175 0 .35-.013.523-.04V7.472c0-.053-.003-.092-.006-.12a1.193 1.193 0 0 0-.102-.014h-3.911a3.602 3.602 0 0 0-.098.84zm-.945 12.52h2.919l3.474-2.254c.636-.414.96-.913.913-1.405a1.106 1.106 0 0 0-.698-.9 1.104 1.104 0 0 0-.41-.08c-.313 0-.636.135-.936.394h-.001l-3.117 2.68a.724.724 0 0 1-.417.175l-1.727.14zm-3.081-1.001c-.57.047-.578.532-.574.628.007.17.066.373.31.373h1.887v-1.132zm-1.727-.503c0-.002.003-.004.004-.006l-3.805-1.258v2.768h3.533v-.005a2.142 2.142 0 0 1 .267-1.499zm1.468 2.963c-2.16 6.287-1.597 10.832-.115 15.103h1.472c.073-.94.377-1.695.91-2.254a3.043 3.043 0 0 1 1.624-.871v-3.85c0-4.573 2.36-5.991 3.847-6.43a28.645 28.645 0 0 1-.537-2.03l-.33.215a.733.733 0 0 1-.396.117zm12.05 18.422a8.038 8.038 0 0 1 2.293-4.977A7.854 7.854 0 0 1 35.8 33.25a7.886 7.886 0 0 1 6.428 3.292c.03-2.103-.488-3.434-1.064-4.504h-6.831a.728.728 0 0 1 0-1.458h7.259c.25 0 .462-.212.462-.463v-2.004h-9.851c-.034.04-.067.08-.103.117-.774.815-1.947 1.212-3.586 1.213l-2.618.002c-.401 0-.433.084-.47.182-.075.2-.102.539-.111.953h5.75a.729.729 0 1 1 0 1.458H25.31v5.353c0 .88-.498 1.327-1.48 1.327h-7.57c.244.62.504 1.237.774 1.857zm8.009 5.318c2.279 0 4.2-1.643 4.666-3.86h-9.333c.465 2.217 2.386 3.86 4.667 3.86zm6.362-5.318a6.747 6.747 0 0 0-.24-1.208l-.01-.026c-.813-2.704-3.273-4.636-6.203-4.636-3.337 0-6.094 2.573-6.452 5.87zm6.125-17.688H37.57v3.765h9.625c.652 0 1.183-.531 1.183-1.185zm0-3.01H37.57v1.55h10.808zm0-2.94c0-.654-.531-1.185-1.183-1.185h-8.442c-.651 0-1.183.53-1.183 1.185v1.482h10.808z"/></g></g></svg>