<svg xmlns="http://www.w3.org/2000/svg" width="56" height="44" viewBox="0 0 56 44"><g><g><path fill="#414042" d="M4.575 29.91a7.384 7.384 0 0 1-4.186-6.648V11.936a2.498 2.498 0 0 1 4.899-.687l2.588 9.06a3.676 3.676 0 0 0 2.822 2.601l9.44 1.888a2.947 2.947 0 0 1-.577 5.837h-.353l2.633 7.373h3.432V27.331l-6.833-6.833h-7.913a.923.923 0 0 1-.922-.922V15.89c0-.509.413-.922.922-.922h1.35l.547-.82a4.35 4.35 0 0 1 2.71-1.845v-2.98A3.695 3.695 0 0 1 12.37 5.75V1.144c0-.509.413-.922.922-.922h5.529c.509 0 .922.413.922.922v4.607a3.694 3.694 0 0 1-2.765 3.571v2.981c1.109.237 2.082.9 2.71 1.844l.548.821h1.73a7.22 7.22 0 0 1-1.147-1.332.923.923 0 0 1 .767-1.433h.497a3.678 3.678 0 0 1-.003-3.687 3.68 3.68 0 0 1 3.193-1.843h2.383l1-1a2.875 2.875 0 0 1 2.707-.763l.36-.36V2.986h1.844v.921h.922v1.843h-1.361l-.178.178a2.861 2.861 0 0 1 .61 1.984 3.682 3.682 0 0 1 .433 4.29h.496a.92.92 0 0 1 .767 1.433 7.22 7.22 0 0 1-1.148 1.332h1.73l.548-.82a4.353 4.353 0 0 1 2.71-1.845v-2.98a3.695 3.695 0 0 1-2.764-3.572V1.144c0-.509.413-.922.922-.922h5.53c.509 0 .92.413.92.922v4.607a3.694 3.694 0 0 1-2.764 3.571v2.981c1.11.237 2.083.9 2.71 1.844l.548.821h1.35c.509 0 .922.413.922.922v3.686a.923.923 0 0 1-.922.922h-7.913l-6.833 6.833v10.677h3.432l2.633-7.373h-.352a2.947 2.947 0 0 1-.578-5.837l9.44-1.888a3.674 3.674 0 0 0 2.822-2.602l2.588-9.059a2.498 2.498 0 0 1 4.899.687v11.326A7.382 7.382 0 0 1 51.5 29.91l4.138 12.415a.92.92 0 0 1-.874 1.213H52.92a.922.922 0 0 1-.8-.464l-7.107-12.439h-1.696l-7.107 12.44a.922.922 0 0 1-.8.463H20.665a.922.922 0 0 1-.801-.464l-7.107-12.439h-1.695l-7.108 12.44a.922.922 0 0 1-.8.463H1.31a.92.92 0 0 1-.874-1.213zm45.177.583a7.32 7.32 0 0 1-1.438.142h-1.177l6.319 11.06h.03zM35.41 27.688c0 .61.494 1.103 1.104 1.104h11.799a5.536 5.536 0 0 0 5.529-5.53V11.936c0-.759-1.075-.91-1.283-.18l-2.59 9.058a5.508 5.508 0 0 1-4.231 3.903l-9.441 1.888a1.107 1.107 0 0 0-.887 1.083zm-.536 14.007l6.32-11.06h-2.37zm9.752-24.884h-3.305l-1.843 1.843h5.148zm-6.452-11.06a1.844 1.844 0 1 0 3.687 0zm3.687-3.686h-3.687v1.843h3.687zm-1.843 11.981a2.517 2.517 0 0 0-1.95.922h3.898a2.513 2.513 0 0 0-1.948-.922zm-16.59-3.686a1.845 1.845 0 0 0 1.844 1.843h5.529a1.845 1.845 0 0 0 1.782-2.32l-1.13 1.128-1.303-1.303 1.27-1.27a1.033 1.033 0 1 0-1.461-1.462l-1.271 1.271a.923.923 0 0 1-.651.27h-2.765a1.844 1.844 0 0 0-1.843 1.843zm.338 3.686c.88.601 1.92.923 2.986.922h2.57a5.284 5.284 0 0 0 2.985-.922zm-6.407 2.765L28.038 27.49l10.677-10.678zm-3.147-11.06a1.843 1.843 0 1 0 3.687 0zM17.9 2.065h-3.687v1.843H17.9zm-1.843 11.981a2.515 2.515 0 0 0-1.95.922h3.898a2.515 2.515 0 0 0-1.948-.922zm.54 4.608l-1.844-1.843h-3.305v1.843zm10.519 19.354h1.843v-8.834l-.27.27a.921.921 0 0 1-1.303 0l-.27-.27zm-4.617 1.844l.659 1.843h9.76l.658-1.843zm-13.56-9.217H7.762c-.483 0-.965-.047-1.44-.142L2.59 41.695h.03zm8.31 0h-2.37l6.32 11.06zM2.233 23.262a5.537 5.537 0 0 0 5.53 5.53H19.56a1.104 1.104 0 0 0 .216-2.187l-9.441-1.888a5.51 5.51 0 0 1-4.232-3.903l-2.588-9.058c-.208-.73-1.284-.579-1.284.18z"/></g></g></svg>