<svg xmlns="http://www.w3.org/2000/svg" width="40" height="40" viewBox="0 0 40 40"><g><g><path d="M39.77 15.579a.666.666 0 0 1 .025.133c.002.014.009.025.009.039v22.1a1.925 1.925 0 0 1-.382 1.147c-.003.006-.004.012-.01.019-.003.006-.011.007-.016.014a1.94 1.94 0 0 1-1.542.77H2.753a1.936 1.936 0 0 1-1.537-.767c-.006-.007-.016-.012-.02-.017-.005-.005-.006-.013-.01-.019a1.925 1.925 0 0 1-.381-1.147V15.749c0-.014.008-.025.008-.039a.647.647 0 0 1 .026-.131.632.632 0 0 1 .038-.111.653.653 0 0 1 .064-.1.693.693 0 0 1 .087-.1c.01-.009.015-.022.026-.031l6.249-4.855V5.351A1.95 1.95 0 0 1 9.253 3.4h7.044l2.822-2.19a1.928 1.928 0 0 1 2.37 0l2.82 2.19h7.045a1.95 1.95 0 0 1 1.95 1.951v5.031l6.25 4.855c.012.009.016.022.027.031.032.03.062.064.087.1a.653.653 0 0 1 .064.1.632.632 0 0 1 .038.111zM18.418 3.4h3.77l-1.5-1.164a.624.624 0 0 0-.774 0zM7.954 17.7a.65.65 0 0 1-.65-.649v-5.023L2.73 15.581l10.82 8.403a.65.65 0 0 1-.796 1.028L2.103 16.74v20.747l17.015-13.215a1.93 1.93 0 0 1 2.37 0l17.015 13.215V16.74l-10.67 8.286a.649.649 0 1 1-.797-1.027l10.84-8.418-4.572-3.553v5.023a.65.65 0 0 1-1.3 0v-11.7a.65.65 0 0 0-.65-.651H9.253a.65.65 0 0 0-.65.651v11.7a.65.65 0 0 1-.65.649zm12.736 7.599a.62.62 0 0 0-.775 0L2.917 38.501H37.69z"/></g><g><path d="M20.303 21.6a.65.65 0 1 0 0-1.3 6.5 6.5 0 1 1 6.5-6.5v2.6a1.3 1.3 0 1 1-2.6 0v-2.6a.65.65 0 1 0-1.3 0 2.6 2.6 0 1 1-2.6-2.6.65.65 0 1 0 0-1.3 3.9 3.9 0 1 0 2.628 6.774 2.592 2.592 0 0 0 5.172-.273v-2.6a7.8 7.8 0 1 0-7.8 7.8z"/></g></g></svg>