<svg xmlns="http://www.w3.org/2000/svg" width="401" height="350" viewBox="0 0 401 350"><g><g><path fill="#33353b" d="M163.036 223.167c-2.625 1.388-3.842.96-4.379-.079-.538-1.038-.193-2.293 2.432-3.68 4.781-2.528 8.065-1.87 8.065-1.87s-1.267 3.065-6.118 5.63z"/></g><g><path fill="#33353b" d="M159.818 240.361c-2.53 1.57-3.774 1.228-4.379.231-.605-.996-.343-2.27 2.19-3.84 4.61-2.859 7.933-2.436 7.933-2.436s-1.066 3.145-5.744 6.045z"/></g><g><path fill="#33353b" d="M162.077 290.849l-.556-.076c.012-.087 1.142-8.796-1.142-21.747-2.11-11.95-7.64-30.057-22.018-48.461l.441-.351c14.456 18.506 20.014 36.718 22.132 48.738 2.296 13.03 1.155 21.809 1.143 21.897z"/></g><g><path fill="#33353b" d="M150.78 239.436l-.313-.224c8.08-11.463 4.26-26.045 4.22-26.191l.37-.103c.04.148 3.91 14.904-4.278 26.518z"/></g><g><path fill="#33353b" d="M144.735 233.661c-5.687-.278-9.844-3.362-9.892-3.398l.336-.454c.053.04 5.381 3.985 12.158 3.204l.063.562a16.37 16.37 0 0 1-2.665.086z"/></g><g><path fill="#33353b" d="M138.142 217.395c2.83 2.843 3.008 4.36 2.189 5.193-.82.83-2.325.66-5.155-2.182-5.156-5.178-6.165-9.186-6.165-9.186s3.9.922 9.13 6.175z"/></g><g><path fill="#33353b" d="M136.435 228.509c3.549 1.848 4.172 3.24 3.64 4.283-.534 1.042-2.021 1.337-5.57-.511-6.463-3.366-8.622-6.878-8.622-6.878s3.994-.31 10.552 3.106z"/></g><g><path fill="#33353b" d="M150.901 224.936c.532 2.94-.235 3.987-1.377 4.199-1.142.212-2.226-.491-2.759-3.431-.969-5.358.628-8.331.628-8.331s2.523 2.127 3.508 7.563z"/></g><g><path fill="#33353b" d="M155.94 211.39c.506 2.712.023 3.64-.758 3.788-.78.15-1.563-.536-2.068-3.247-.92-4.94.048-7.596.048-7.596s1.844 2.045 2.778 7.056z"/></g><g><path fill="#91b3fa" d="M169.405 314.552s-17.908-83.767-40.242-77.984c-22.334 5.78 24.32 53.434 28.768 77.987z"/></g><g><path fill="#91b3fa" d="M165.11 315.465s-32.53-72.912-55.519-63.382c-22.988 9.53 34.56 44.05 43.236 65.574z"/></g><g><path fill="#33353b" d="M158.081 316.818c-10.94-28.62-42.218-54.648-42.532-54.908l.633-.78c.316.26 31.793 26.453 42.831 55.324z"/></g><g><path fill="#5000b7" d="M91.685 99.045s-4.042-11.168.67-18.841c4.713-7.672 21.657-18.564 16.876-27.979-4.781-9.415-17.114-9.069-21.373-3.653-4.26 5.415-.883 10.227-4.094 11.291-3.211 1.066-22.24 4.418-22.235-6.747.005-11.164 10.3-28.035 26.568-30.632 16.267-2.596 38.02-5.154 45.453 15.52 7.433 20.673.446 30.061-10.407 37.026-10.854 6.965-3.888 18.755-7.86 21.004-3.972 2.248-22.626 6.661-23.598 3.011z"/></g><g><path fill="#5000b7" d="M90.287 120.977c.132-8.963 4.576-15.111 12.471-16.12 7.894-1.007 14.988 2.214 18.271 12.12 2.505 7.555-6.728 15.463-14.623 16.47-7.894 1.008-16.236-4.512-16.119-12.47z"/></g><g><path fill="#33353b" d="M89.028 101.478c-.577-.242-.929-.586-1.046-1.02-.1-.28-3.968-11.36.682-18.93 1.462-2.383 4.098-5.072 6.89-7.92 6.21-6.337 13.248-13.519 9.98-19.955-2.128-4.19-6.06-6.862-10.789-7.328-4.228-.417-8.31 1.033-10.403 3.694-2.236 2.844-2.344 5.467-2.43 7.575-.077 1.803-.135 3.23-1.714 3.753-1.364.452-4.94 1.151-8.621 1.288-3.36.124-7.975-.17-10.897-2.28-1.898-1.372-2.86-3.342-2.86-5.858.005-11.06 10.148-28.104 26.66-30.739 8.228-1.314 17.71-2.58 26.077-.966 9.793 1.89 16.17 7.304 19.496 16.556 3.474 9.664 4.015 17.424 1.653 23.728-1.931 5.151-5.665 9.292-12.104 13.426-6.715 4.307-6.557 10.53-6.44 15.074.07 2.823.127 5.053-1.426 5.932-2.737 1.55-13.437 4.426-19.517 4.426-1.328 0-2.435-.138-3.191-.456zm5.738-55.368c4.804.473 8.8 3.187 10.961 7.446 3.338 6.573-3.759 13.815-10.02 20.204-2.781 2.84-5.41 5.52-6.86 7.882-4.63 7.54-.7 18.635-.66 18.747l.003.008c.098.37.408.666.921.882.72.303 1.8.434 3.106.434 5.877.001 16.351-2.66 19.412-4.393 1.44-.815 1.385-2.988 1.316-5.739-.117-4.595-.277-10.888 6.54-15.262 6.397-4.106 10.103-8.214 12.016-13.319 2.344-6.253 1.803-13.966-1.653-23.579-7.117-19.797-27.133-18.355-45.335-15.449C68.117 26.59 58.04 43.515 58.037 54.497c0 2.442.93 4.354 2.77 5.683 2.872 2.074 7.438 2.361 10.761 2.24 3.66-.138 7.21-.83 8.562-1.278 1.438-.477 1.492-1.769 1.565-3.557.084-2.026.198-4.8 2.478-7.699 1.894-2.41 5.377-3.848 9.138-3.848.481 0 .967.023 1.455.072z"/></g><g><path fill="#33353b" d="M90.63 131.191c-2.661-2.377-4.1-5.516-4.051-8.835.067-4.471 1.224-8.312 3.347-11.107 2.169-2.855 5.356-4.626 9.219-5.118 8.875-1.133 15.406 3.197 18.387 12.192.86 2.592.406 5.407-1.315 8.139-2.726 4.33-8.235 7.814-13.397 8.473-.636.081-1.277.121-1.917.121-3.763 0-7.496-1.383-10.273-3.865zm8.542-24.846c-3.803.485-6.94 2.226-9.074 5.035-2.095 2.758-3.238 6.555-3.302 10.978-.048 3.256 1.364 6.336 3.979 8.671 3.203 2.864 7.695 4.244 12.018 3.691 5.102-.651 10.547-4.094 13.24-8.374 1.686-2.675 2.133-5.426 1.294-7.955-2.637-7.958-8.085-12.221-15.488-12.221-.863 0-1.752.059-2.667.175z"/></g><g><path fill="#fffff8" d="M221.873 61.299s-1.107-9.49 3.996-14.63c5.104-5.14 20.379-10.547 18.369-18.801-2.009-8.253-11.73-10.254-16.063-6.798-4.332 3.457-2.575 7.846-5.285 8.088-2.711.243-18.23-.638-16.169-9.38 2.06-8.741 13.231-20.055 26.447-19.091 13.217.964 30.723 2.968 32.733 20.526 2.012 17.559-5.189 23.622-14.97 27.076-9.783 3.455-6.5 13.97-10.025 14.999-3.525 1.03-18.945 1.048-19.033-1.99z"/></g><g><path fill="#fffff8" d="M216.738 78.215c1.754-6.994 6.367-10.99 12.734-10.324 6.37.665 11.33 4.494 12.076 12.855.57 6.377-8.119 10.869-14.486 10.203-6.368-.665-11.883-6.524-10.324-12.734z"/></g><g><path fill="#33353b" d="M219.344 62.715c-.407-.296-.619-.63-.63-.993-.013-.11-.268-2.47.084-5.404.331-2.765 1.282-6.62 3.936-9.293 1.585-1.596 4.145-3.217 6.855-4.932 6.03-3.818 12.865-8.146 11.492-13.787-.895-3.673-3.482-6.49-7.099-7.726-3.232-1.105-6.698-.722-8.826.976-2.275 1.815-2.844 3.85-3.3 5.483-.39 1.4-.699 2.504-2.032 2.624-2.315.206-11.599-.334-15.1-4.373-1.235-1.424-1.625-3.145-1.16-5.114C205.603 11.516 216.69.04 230.1 1.017c6.687.488 14.343 1.243 20.6 4.048 7.318 3.283 11.315 8.698 12.214 16.556.94 8.207-.066 14.385-3.077 18.885-2.462 3.678-6.148 6.233-11.95 8.283-6.052 2.137-7.076 7.038-7.822 10.618-.465 2.224-.83 3.98-2.209 4.383-1.263.368-4.28.621-7.555.621-4.395 0-9.252-.455-10.958-1.696zm14.694-42.299c3.675 1.255 6.303 4.116 7.212 7.85 1.402 5.761-5.488 10.124-11.568 13.974-2.702 1.71-5.253 3.326-6.825 4.908-2.619 2.637-3.559 6.453-3.886 9.191-.357 2.97-.087 5.343-.084 5.367v.008c.008.307.197.596.56.86 2.792 2.031 15.041 2.018 18.361 1.048 1.28-.372 1.635-2.084 2.087-4.25.756-3.62 1.79-8.577 7.933-10.747 5.767-2.036 9.426-4.57 11.865-8.216 2.988-4.464 3.985-10.604 3.05-18.769-1.927-16.812-17.865-19.37-32.654-20.449-13.323-.974-24.33 10.426-26.357 19.025-.45 1.912-.073 3.581 1.122 4.961 3.458 3.987 12.66 4.517 14.954 4.312 1.213-.108 1.494-1.11 1.88-2.497.44-1.57 1.04-3.722 3.36-5.572 1.35-1.077 3.225-1.638 5.24-1.638 1.227 0 2.506.208 3.75.634z"/></g><g><path fill="#33353b" d="M223.98 91.454c-3.536-.37-6.847-2.306-8.856-5.178-1.646-2.352-2.194-5.074-1.543-7.665 1.795-7.158 6.59-11.043 12.828-10.39 7.16.75 11.474 5.342 12.152 12.935.195 2.19-.68 4.31-2.529 6.131-2.629 2.59-6.883 4.233-10.735 4.233-.445 0-.885-.02-1.317-.066zm-5.623-20.789c-2.148 1.773-3.742 4.536-4.608 7.988-.638 2.541-.099 5.213 1.517 7.524 1.982 2.831 5.245 4.74 8.732 5.103 4.116.431 9.013-1.263 11.912-4.117 1.811-1.784 2.67-3.857 2.477-5.99-.669-7.502-4.929-12.04-11.997-12.779a12.64 12.64 0 0 0-1.322-.07c-2.543 0-4.842.798-6.71 2.341z"/></g><g><path fill="#91b3fa" d="M287.238 140.942s-.407-9.546 5.061-14.296c5.467-4.75 21.098-9.02 19.702-17.4-1.398-8.378-10.946-11.087-15.52-7.96-4.576 3.13-3.146 7.636-5.867 7.678-2.72.042-18.132-1.976-15.435-10.542 2.698-8.568 14.67-19.03 27.78-17.097 13.11 1.931 30.421 5.22 31.135 22.877.715 17.659-6.912 23.177-16.92 25.903-10.01 2.726-7.509 13.454-11.1 14.222-3.592.766-18.97-.35-18.836-3.384z"/></g><g><path fill="#91b3fa" d="M280.874 157.435c2.264-6.846 7.157-10.492 13.459-9.36 6.302 1.13 10.968 5.315 11.098 13.71.098 6.4-8.895 10.242-15.197 9.11-6.301-1.132-11.37-7.381-9.36-13.46z"/></g><g><path fill="#33353b" d="M284.612 142.169c-.384-.325-.57-.674-.557-1.036-.004-.11-.084-2.483.483-5.383.533-2.733 1.765-6.509 4.608-8.978 1.698-1.476 4.37-2.904 7.198-4.415 6.295-3.366 13.43-7.179 12.475-12.906-.622-3.729-2.995-6.728-6.51-8.226-3.144-1.34-6.628-1.213-8.875.324-2.403 1.642-3.119 3.629-3.694 5.225-.492 1.367-.882 2.447-2.22 2.467-2.32.039-11.543-1.184-14.738-5.47-1.126-1.511-1.389-3.255-.78-5.186 2.671-8.485 14.566-19.117 27.874-17.156 6.631.977 14.213 2.294 20.245 5.552 7.058 3.811 10.645 9.505 10.965 17.408.335 8.255-1.123 14.341-4.457 18.608-2.725 3.487-6.589 5.764-12.529 7.382-6.19 1.686-7.57 6.5-8.579 10.014-.627 2.184-1.12 3.909-2.524 4.209-.703.15-1.925.227-3.42.227-4.92 0-12.81-.836-14.965-2.66zm17.764-41.104c3.572 1.521 5.983 4.568 6.615 8.358.975 5.85-6.218 9.694-12.565 13.087-2.819 1.507-5.483 2.93-7.166 4.392-2.804 2.437-4.023 6.172-4.55 8.877-.575 2.937-.482 5.327-.48 5.351v.007c-.015.307.152.609.494.899 2.636 2.232 14.854 3.117 18.236 2.396 1.301-.279 1.784-1.959 2.394-4.087 1.02-3.554 2.415-8.422 8.7-10.134 5.902-1.607 9.737-3.865 12.438-7.321 3.306-4.234 4.753-10.283 4.42-18.494-.685-16.91-16.392-20.632-31.062-22.794-13.215-1.949-25.03 8.609-27.683 17.035-.59 1.875-.336 3.566.755 5.03 3.154 4.231 12.284 5.44 14.595 5.4 1.218-.019 1.572-.998 2.06-2.351.553-1.535 1.31-3.636 3.76-5.311 1.24-.848 2.846-1.277 4.565-1.277 1.462 0 3.005.31 4.474.937z"/></g><g><path fill="#33353b" d="M287.123 171.171c-3.499-.629-6.658-2.803-8.451-5.815-1.468-2.467-1.815-5.222-.976-7.758 2.317-7.007 7.384-10.528 13.557-9.419 7.085 1.273 11.052 6.171 11.169 13.793.034 2.198-.994 4.247-2.974 5.93-2.56 2.174-6.408 3.47-9.976 3.47-.803 0-1.592-.066-2.349-.2zm-4.079-21.147c-2.274 1.611-4.066 4.25-5.183 7.63-.823 2.486-.481 5.19.96 7.613 1.768 2.97 4.883 5.113 8.333 5.732 4.073.731 9.082-.597 12.182-3.23 1.938-1.647 2.945-3.65 2.912-5.794-.116-7.529-4.031-12.368-11.025-13.625a12.368 12.368 0 0 0-2.183-.199c-2.204 0-4.246.634-5.996 1.873z"/></g><g><path fill="#5000b7" d="M325.176 49.889s-.246-5.772 3.06-8.645c3.307-2.873 12.759-5.455 11.915-10.522-.845-5.066-6.62-6.705-9.386-4.813-2.767 1.89-1.901 4.617-3.547 4.642-1.646.026-10.965-1.195-9.334-6.376 1.63-5.18 8.87-11.507 16.799-10.338 7.928 1.169 18.395 3.156 18.828 13.834.433 10.679-4.18 14.016-10.232 15.664-6.053 1.649-4.541 8.137-6.712 8.6-2.172.464-11.472-.21-11.391-2.046z"/></g><g><path fill="#5000b7" d="M321.327 59.862c1.37-4.14 4.328-6.345 8.14-5.66 3.81.684 6.631 3.214 6.71 8.29.06 3.871-5.379 6.194-9.19 5.51-3.81-.685-6.876-4.464-5.66-8.14z"/></g><g><path fill="#33353b" d="M323.588 50.631c-.233-.196-.346-.407-.337-.627-.002-.067-.051-1.5.292-3.255.322-1.652 1.067-3.936 2.787-5.43 1.026-.89 2.643-1.756 4.353-2.67 3.806-2.034 8.121-4.34 7.544-7.803-.376-2.255-1.812-4.069-3.938-4.975-1.901-.81-4.007-.733-5.366.195-1.453.995-1.886 2.196-2.235 3.161-.297.827-.533 1.48-1.341 1.492-1.401.022-6.981-.717-8.913-3.309-.681-.913-.84-1.968-.472-3.136 1.615-5.13 8.809-11.559 16.856-10.374 4.011.591 8.595 1.387 12.243 3.357 4.268 2.305 6.437 5.75 6.63 10.527.203 4.992-.679 8.673-2.695 11.253-1.647 2.11-3.984 3.485-7.576 4.464-3.743 1.02-4.578 3.931-5.188 6.056-.378 1.32-.677 2.364-1.527 2.545-.425.09-1.164.137-2.068.137-2.976 0-7.746-.505-9.049-1.608zm10.742-24.858c2.16.921 3.618 2.764 4 5.055.59 3.538-3.76 5.863-7.598 7.914-1.705.911-3.315 1.773-4.334 2.656-1.695 1.474-2.432 3.733-2.752 5.37-.346 1.775-.29 3.22-.29 3.234v.005c-.007.185.093.368.299.543 1.595 1.35 8.983 1.886 11.029 1.45.787-.169 1.078-1.186 1.447-2.473.616-2.149 1.461-5.092 5.262-6.128 3.568-.97 5.887-2.337 7.52-4.426 2-2.56 2.875-6.219 2.674-11.184-.414-10.226-9.913-12.477-18.784-13.785-7.99-1.179-15.137 5.207-16.741 10.303-.357 1.132-.204 2.156.457 3.041 1.879 2.521 7.275 3.266 8.763 3.266h.063c.736-.012.95-.603 1.245-1.423.335-.927.792-2.198 2.273-3.21.75-.514 1.722-.773 2.762-.773.884 0 1.816.187 2.705.565z"/></g><g><path fill="#5000b7" d="M325.107 68.17c-2.116-.38-4.027-1.695-5.111-3.518-.887-1.49-1.097-3.157-.59-4.69 1.4-4.237 4.467-6.367 8.198-5.696 4.285.77 6.683 3.731 6.754 8.34.02 1.33-.601 2.57-1.798 3.585-1.55 1.316-3.875 2.1-6.033 2.1-.486 0-.962-.04-1.42-.122zm-2.467-12.788c-1.375.973-2.46 2.57-3.135 4.612-.497 1.504-.291 3.14.58 4.605 1.07 1.796 2.954 3.091 5.04 3.466 2.464.442 5.492-.36 7.367-1.954 1.17-.996 1.78-2.207 1.76-3.503-.07-4.553-2.437-7.479-6.667-8.239a7.497 7.497 0 0 0-1.32-.12c-1.332 0-2.567.383-3.625 1.133z"/></g><g><path fill="#91b3fa" d="M85.314 219.975s-4.621-6.65-2.861-12.531c1.758-5.882 11.012-16.031 6.212-21.396-4.8-5.365-12.868-2.973-14.724 1.34-1.856 4.316 1.212 6.895-.717 8.159-1.929 1.265-13.879 6.81-15.834-.547-1.955-7.356 1.871-20.278 12.135-24.841 10.263-4.564 24.148-10.064 32.67 2.255 8.523 12.319 5.565 19.729-.364 26.222-5.93 6.492.726 13.039-1.497 15.217-2.222 2.179-13.74 8.356-15.02 6.122z"/></g><g><path fill="#91b3fa" d="M88.238 234.67c-1.484-5.928.365-10.759 5.391-12.808 5.025-2.047 10.263-1.169 14.164 4.783 2.974 4.538-1.722 11.368-6.747 13.416-5.026 2.047-11.49-.126-12.808-5.391z"/></g><g><path fill="#33353b" d="M83.989 222.044c-.422-.058-.714-.223-.867-.49-.114-.165-4.607-6.788-2.87-12.591.546-1.826 1.811-4.061 3.15-6.427 2.982-5.264 6.36-11.231 3.078-14.898-2.137-2.388-5.196-3.46-8.394-2.937-2.858.467-5.294 2.138-6.206 4.258-.975 2.267-.587 4.014-.275 5.417.268 1.202.479 2.152-.47 2.774-.82.537-3.053 1.625-5.455 2.36-2.19.67-5.284 1.286-7.578.408-1.492-.57-2.472-1.7-2.913-3.358-1.936-7.287 1.759-20.297 12.176-24.928 5.193-2.31 11.217-4.806 17.013-5.21 6.785-.472 11.935 1.978 15.748 7.49 3.984 5.759 5.701 10.779 5.25 15.345-.369 3.733-2.103 7.116-5.621 10.969-3.668 4.015-2.473 8.088-1.601 11.06.543 1.849.971 3.309.102 4.16-1.001.982-3.836 2.74-6.739 4.18-1.535.762-5.148 2.443-7.141 2.443-.137 0-.267-.008-.387-.025zm2.601-34.504c3.352 3.745-.054 9.762-3.059 15.069-1.336 2.358-2.596 4.586-3.138 6.396-1.73 5.779 2.805 12.402 2.852 12.469l.003.005c.13.226.386.367.762.419 1.289.18 4.003-.697 7.441-2.404 2.892-1.434 5.71-3.181 6.702-4.153.806-.79.389-2.212-.139-4.012-.883-3.007-2.092-7.126 1.632-11.203 3.496-3.827 5.217-7.183 5.583-10.883.448-4.531-1.261-9.518-5.224-15.247-8.16-11.796-21.096-7.336-32.58-2.23-10.345 4.6-14.016 17.519-12.093 24.756.428 1.61 1.377 2.706 2.822 3.258 2.256.864 5.315.253 7.483-.411 2.387-.731 4.605-1.81 5.418-2.342.863-.567.672-1.427.407-2.62-.301-1.348-.711-3.196.282-5.506.932-2.165 3.411-3.871 6.319-4.345a9.972 9.972 0 0 1 1.604-.132c2.651 0 5.112 1.093 6.923 3.116z"/></g><g><path fill="#33353b" d="M90.255 241.34c-2.17-1.1-3.668-2.916-4.218-5.112-1.52-6.067.512-10.887 5.435-12.893 5.649-2.303 10.712-.595 14.253 4.81 1.02 1.557 1.215 3.49.56 5.592-1.037 3.331-4.055 6.593-7.34 7.933a10.615 10.615 0 0 1-3.99.773c-1.63 0-3.254-.37-4.7-1.103zm.067-.13c2.613 1.323 5.815 1.444 8.566.323 3.248-1.324 6.23-4.547 7.257-7.839.64-2.059.453-3.949-.543-5.469-3.5-5.339-8.497-7.027-14.074-4.754-2.421.987-4.184 2.684-5.097 4.91-.897 2.183-.983 4.885-.251 7.812.54 2.153 2.01 3.935 4.142 5.016z"/></g><g><path fill="#5000b7" d="M349.466 207.691s1.815-5.485 5.925-7c4.11-1.515 13.864-.58 14.869-5.618 1.006-5.037-3.814-8.615-7.07-7.827-3.258.79-3.415 3.643-4.963 3.085-1.548-.558-9.83-5.002-6.47-9.27 3.36-4.266 12.373-7.617 19.372-3.715 7 3.902 16.085 9.47 12.706 19.608-3.38 10.138-8.874 11.625-15.12 11.022-6.243-.603-7.128 6-9.322 5.664-2.196-.336-10.654-4.262-9.927-5.949z"/></g><g><path fill="#5000b7" d="M342.333 215.654c2.747-3.386 6.296-4.399 9.617-2.409 3.321 1.99 5.064 5.355 3.338 10.13-1.315 3.64-7.225 3.885-10.545 1.895-3.321-1.99-4.848-6.609-2.41-9.616z"/></g><g><path fill="#33353b" d="M357.594 213.136c-1.844-.28-8.796-3.367-9.876-5.314-.147-.267-.178-.503-.092-.705.022-.064.484-1.422 1.426-2.942.887-1.43 2.393-3.3 4.529-4.088 1.277-.47 3.094-.706 5.017-.955 4.28-.554 9.133-1.182 9.819-4.624.448-2.244-.252-4.448-1.92-6.048-1.49-1.43-3.486-2.105-5.087-1.718-1.711.414-2.541 1.385-3.21 2.164-.57.667-1.021 1.194-1.782.92-1.322-.479-6.273-3.144-7.162-6.252-.313-1.096-.09-2.139.669-3.1 3.329-4.226 12.335-7.689 19.439-3.729 3.54 1.973 7.545 4.342 10.258 7.476 3.176 3.668 3.984 7.658 2.472 12.195-1.58 4.74-3.708 7.868-6.508 9.567-2.288 1.388-4.961 1.848-8.666 1.49-3.863-.374-5.674 2.053-6.997 3.825-.766 1.027-1.384 1.852-2.16 1.852-.055 0-.111-.005-.17-.014zm8.977-24.753c1.694 1.626 2.405 3.867 1.95 6.145-.702 3.517-5.594 4.15-9.91 4.708-1.916.248-3.728.482-4.993.95-2.11.777-3.598 2.628-4.477 4.045-.953 1.538-1.411 2.907-1.416 2.921l-.002.005c-.073.171-.044.377.088.613 1.012 1.827 7.73 4.946 9.799 5.263.797.12 1.427-.726 2.228-1.798 1.339-1.792 3.172-4.244 7.092-3.867 3.682.356 6.334-.1 8.602-1.475 2.777-1.685 4.89-4.797 6.46-9.51 3.238-9.709-4.847-15.18-12.68-19.546-7.055-3.934-16-.495-19.304 3.702-.735.933-.955 1.944-.651 3.006.878 3.07 5.786 5.708 7.096 6.181.694.25 1.103-.227 1.669-.888.642-.75 1.52-1.776 3.264-2.199a4.1 4.1 0 0 1 .959-.11c1.423 0 2.995.674 4.226 1.854z"/></g><g><path fill="#33353b" d="M342.925 224.76c-1.845-1.105-3.165-3.011-3.534-5.098-.302-1.71.092-3.342 1.11-4.596 2.811-3.465 6.432-4.371 9.685-2.421 3.734 2.237 4.927 5.857 3.361 10.192-.452 1.25-1.473 2.189-2.952 2.716-.869.309-1.85.459-2.85.459-1.698 0-3.454-.433-4.82-1.251zm-3.431-5.116c.363 2.057 1.666 3.937 3.485 5.027 2.146 1.285 5.262 1.607 7.581.782 1.448-.515 2.447-1.432 2.887-2.651 1.548-4.283.37-7.858-3.315-10.067-1.6-.96-3.323-1.238-4.984-.806-1.63.424-3.21 1.532-4.565 3.203-.998 1.23-1.385 2.833-1.089 4.512z"/></g><g><path fill="#fffff8" d="M362.154 137.652s3.137-4.853 7.495-5.284c4.36-.432 13.565 2.927 15.805-1.696s-1.524-9.298-4.874-9.354c-3.35-.057-4.222 2.667-5.579 1.736-1.357-.93-8.255-7.315-3.929-10.598 4.326-3.283 13.892-4.259 19.684 1.278 5.793 5.537 13.184 13.212 7.363 22.174-5.822 8.963-11.515 9.018-17.406 6.863-5.892-2.154-8.41 4.013-10.45 3.136-2.039-.877-9.237-6.805-8.109-8.255z"/></g><g><path fill="#fffff8" d="M353.247 143.564c3.511-2.586 7.2-2.674 9.913.088 2.714 2.762 3.554 6.458.682 10.644-2.19 3.193-7.97 1.944-10.683-.818-2.713-2.764-3.029-7.618.088-9.915z"/></g><g><path fill="#33353b" d="M368.65 144.967c-1.713-.736-7.665-5.471-8.22-7.628-.077-.295-.048-.532.087-.706.078-.12 3.232-4.88 7.533-5.305 1.353-.134 3.171.095 5.095.338 4.284.54 9.137 1.155 10.668-2.004.998-2.058.875-4.368-.335-6.336-1.083-1.761-2.846-2.915-4.492-2.944-1.762-.026-2.808.7-3.65 1.287-.72.502-1.291.899-1.958.44-1.16-.793-5.28-4.62-5.358-7.851-.028-1.14.452-2.092 1.428-2.832 4.285-3.253 13.872-4.338 19.75 1.282 2.93 2.802 6.211 6.102 8.048 9.818 2.15 4.349 1.927 8.413-.678 12.424-2.72 4.189-5.569 6.682-8.705 7.622-2.564.767-5.267.54-8.762-.74-3.644-1.332-6.009.56-7.735 1.942-.878.703-1.605 1.284-2.277 1.284-.149 0-.296-.028-.44-.091zm-.588-13.535c-4.284.425-7.426 5.212-7.457 5.26l-.003.005c-.114.146-.138.353-.07.616.52 2.022 6.238 6.73 8.159 7.558.739.318 1.565-.343 2.61-1.18 1.746-1.397 4.136-3.31 7.837-1.956 3.473 1.269 6.154 1.497 8.695.736 3.113-.932 5.94-3.411 8.648-7.58 5.575-8.581-.873-15.91-7.355-22.106-5.838-5.582-15.36-4.505-19.616-1.275-.945.718-1.412 1.642-1.385 2.745.077 3.192 4.164 6.98 5.313 7.769.608.416 1.124.056 1.838-.441.794-.553 1.876-1.306 3.61-1.306h.102c1.68.029 3.478 1.203 4.579 2.993 1.23 2 1.354 4.347.34 6.437-1.563 3.227-6.456 2.609-10.774 2.064-1.527-.193-2.987-.378-4.196-.378-.31 0-.603.013-.875.039z"/></g><g><path fill="#33353b" d="M351.528 152.525c-1.506-1.533-2.305-3.71-2.137-5.823.139-1.73.93-3.21 2.232-4.169 3.592-2.646 7.324-2.612 9.982.093 3.05 3.105 3.295 6.91.687 10.711-.752 1.095-1.975 1.748-3.54 1.885a7.333 7.333 0 0 1-.632.027c-2.337 0-4.966-1.069-6.592-2.724zm-2.031-5.815c-.166 2.084.62 4.23 2.106 5.742 1.754 1.785 4.694 2.882 7.14 2.665 1.533-.135 2.729-.77 3.463-1.84 2.575-3.756 2.335-7.512-.676-10.577-1.308-1.33-2.905-2.033-4.62-2.033-1.686 0-3.493.674-5.225 1.951-1.275.94-2.053 2.393-2.188 4.092z"/></g><g><path fill="#fffff8" d="M22.435 139.792s-3.298-4.745-2.042-8.94c1.256-4.197 7.858-11.438 4.433-15.265-3.425-3.828-9.18-2.122-10.504.956-1.325 3.08.864 4.918-.512 5.82-1.376.903-9.902 4.86-11.297-.389-1.394-5.249 1.335-14.468 8.657-17.724 7.323-3.256 17.229-7.18 23.309 1.61 6.08 8.787 3.97 14.076-.26 18.707-4.231 4.632.519 9.303-1.067 10.857-1.587 1.555-9.804 5.962-10.717 4.368z"/></g><g><path fill="#fffff8" d="M24.521 150.276c-1.06-4.229.26-7.676 3.846-9.138 3.585-1.46 7.322-.834 10.105 3.411 2.122 3.24-1.228 8.112-4.814 9.573-3.585 1.462-8.197-.09-9.137-3.846z"/></g><g><path fill="#33353b" d="M21.49 141.269c-.302-.042-.51-.16-.62-.35-.08-.12-3.286-4.844-2.048-8.983.391-1.304 1.293-2.898 2.25-4.586 2.125-3.756 4.536-8.013 2.194-10.63-1.524-1.703-3.707-2.467-5.989-2.094-2.039.333-3.776 1.526-4.428 3.037-.695 1.618-.418 2.864-.195 3.866.19.857.341 1.535-.336 1.978-.584.384-2.179 1.159-3.89 1.684-1.564.479-3.77.919-5.409.292-1.064-.408-1.762-1.214-2.077-2.397-1.382-5.2 1.255-14.48 8.687-17.785 3.704-1.646 8.003-3.428 12.137-3.717 4.84-.337 8.516 1.41 11.237 5.345 2.841 4.108 4.067 7.689 3.745 10.947-.264 2.664-1.5 5.077-4.01 7.826-2.617 2.866-1.765 5.77-1.143 7.892.387 1.318.693 2.359.073 2.967-1.28 1.254-7.458 4.724-9.899 4.725-.099 0-.193-.005-.28-.017zm1.854-24.618c2.392 2.673-.038 6.965-2.182 10.752-.952 1.68-1.852 3.27-2.238 4.563-1.235 4.123 2.002 8.848 2.034 8.896l.003.003c.091.162.275.262.543.299.922.127 2.856-.498 5.308-1.715 2.064-1.024 4.074-2.27 4.782-2.963.576-.563.278-1.578-.099-2.862-.63-2.145-1.492-5.084 1.165-7.993 2.494-2.73 3.723-5.125 3.983-7.765.32-3.232-.899-6.791-3.727-10.877-5.822-8.416-15.05-5.235-23.244-1.591-7.38 3.28-10 12.498-8.628 17.66.304 1.149.982 1.932 2.013 2.326 1.61.616 3.791.18 5.338-.293 1.704-.522 3.286-1.292 3.865-1.672.617-.404.48-1.017.292-1.868-.214-.963-.508-2.281.201-3.93.665-1.544 2.434-2.76 4.507-3.1a7.104 7.104 0 0 1 1.146-.093c1.891 0 3.647.779 4.938 2.223z"/></g><g><path fill="#33353b" d="M25.96 155.035c-1.548-.785-2.617-2.08-3.01-3.646-1.084-4.329.366-7.768 3.878-9.2 4.03-1.642 7.642-.424 10.169 3.432.729 1.11.866 2.49.4 3.99-.74 2.377-2.894 4.703-5.238 5.66a7.57 7.57 0 0 1-2.845.551 7.417 7.417 0 0 1-3.354-.787zm.907-12.748c-1.726.704-2.984 1.915-3.635 3.502-.64 1.56-.703 3.486-.18 5.574.386 1.536 1.435 2.808 2.956 3.578 1.863.946 4.148 1.033 6.11.232 2.319-.944 4.448-3.244 5.178-5.593.458-1.469.323-2.817-.387-3.9-1.771-2.705-4.083-4.096-6.697-4.096-1.07 0-2.19.232-3.345.703z"/></g><g><path fill="#44474f" d="M137.48 124.481a12.57 12.57 0 0 1-2.632-.494.263.263 0 0 1 .152-.503c.795.242 1.645.402 2.524.474a.263.263 0 0 1-.022.524h-.021zm2.384-.259a.264.264 0 0 1 .239-.285 18.92 18.92 0 0 0 2.554-.418.264.264 0 0 1 .119.513c-.896.207-1.78.351-2.625.43h-.025a.264.264 0 0 1-.262-.24zm5.126-1.094a.264.264 0 0 1 .162-.335 30.006 30.006 0 0 0 2.418-.968.262.262 0 1 1 .216.48c-.827.373-1.655.704-2.461.985a.265.265 0 0 1-.335-.162zm-12.557-.39c-.758-.668-1.164-1.502-1.208-2.478a.263.263 0 1 1 .525-.024c.037.828.384 1.537 1.03 2.108a.263.263 0 1 1-.347.394zm17.369-1.719a.262.262 0 0 1 .106-.356c.745-.405 1.504-.85 2.254-1.32a.263.263 0 1 1 .28.444c-.76.477-1.528.928-2.284 1.338a.264.264 0 0 1-.356-.106zm4.472-2.765a.262.262 0 0 1 .06-.366 51.468 51.468 0 0 0 2.093-1.573.262.262 0 1 1 .327.411 50.06 50.06 0 0 1-2.114 1.59.263.263 0 0 1-.366-.062zm-22.295-.29a.263.263 0 0 1-.125-.35c.34-.72.823-1.482 1.43-2.265a.263.263 0 1 1 .416.323c-.585.752-1.046 1.481-1.372 2.168a.26.26 0 0 1-.35.124zm26.433-2.955a.263.263 0 0 1 .025-.37c.652-.573 1.3-1.169 1.926-1.774a.263.263 0 0 1 .366.378 54.754 54.754 0 0 1-1.946 1.79.265.265 0 0 1-.371-.024zm-23.357-1.275a.263.263 0 0 1 0-.372 31.131 31.131 0 0 1 1.958-1.788.263.263 0 1 1 .338.402 30.091 30.091 0 0 0-1.925 1.758.262.262 0 0 1-.371 0zm27.158-2.359a.263.263 0 0 1-.012-.37c.6-.638 1.188-1.294 1.747-1.95a.262.262 0 1 1 .4.34 53.093 53.093 0 0 1-1.764 1.97.262.262 0 0 1-.371.01zm-23.174-1.068a.263.263 0 0 1 .057-.367 48.455 48.455 0 0 1 2.177-1.502.263.263 0 1 1 .287.441c-.746.484-1.47.984-2.153 1.485a.264.264 0 0 1-.368-.057zm55.61-1.423a29.814 29.814 0 0 0-1.87-1.813.264.264 0 0 1-.022-.37.264.264 0 0 1 .37-.023c.654.58 1.295 1.201 1.903 1.844a.262.262 0 0 1-.381.362zm-51.221-1.473a.263.263 0 0 1 .095-.359 57.926 57.926 0 0 1 2.312-1.279.264.264 0 0 1 .355.111.264.264 0 0 1-.111.355 56.24 56.24 0 0 0-2.292 1.267.263.263 0 0 1-.359-.095zm22.214-.023a.264.264 0 0 1-.05-.37 44.173 44.173 0 0 0 1.53-2.12.263.263 0 0 1 .436.294 45.448 45.448 0 0 1-1.548 2.146.262.262 0 0 1-.368.05zm25.115-1.956c-.695-.513-1.423-1-2.162-1.447a.263.263 0 0 1 .27-.45c.755.456 1.495.952 2.204 1.475a.261.261 0 0 1-.156.474.255.255 0 0 1-.156-.052zm-42.683-.484a.264.264 0 0 1 .126-.35 64.163 64.163 0 0 1 2.414-1.072.264.264 0 0 1 .344.141.262.262 0 0 1-.14.344c-.802.336-1.608.694-2.394 1.063a.263.263 0 0 1-.35-.126zm20.538-1.899a.263.263 0 0 1-.094-.36c.452-.772.867-1.546 1.232-2.3a.264.264 0 0 1 .474.23 34.094 34.094 0 0 1-1.252 2.335.263.263 0 0 1-.36.095zm-15.697-.156a.263.263 0 0 1 .155-.338 64.656 64.656 0 0 1 2.496-.865.263.263 0 0 1 .161.5c-.824.266-1.657.555-2.474.86a.29.29 0 0 1-.092.014.262.262 0 0 1-.246-.17zm33.394-.152a29.329 29.329 0 0 0-2.388-1.033.262.262 0 0 1-.152-.339.262.262 0 0 1 .339-.152c.827.315 1.644.67 2.43 1.051a.262.262 0 0 1 .12.352.26.26 0 0 1-.235.147.247.247 0 0 1-.114-.026zm-28.398-1.484a.264.264 0 0 1 .184-.324 57.29 57.29 0 0 1 2.559-.64.262.262 0 0 1 .315.197.264.264 0 0 1-.198.315 56.3 56.3 0 0 0-2.537.635.265.265 0 0 1-.323-.183zm23.539-.372a33.027 33.027 0 0 0-2.531-.618.263.263 0 0 1 .104-.515c.872.177 1.737.387 2.572.628.139.04.22.185.18.325a.265.265 0 0 1-.325.18zm-18.42-.81a.264.264 0 0 1 .213-.305 50.204 50.204 0 0 1 2.614-.39.262.262 0 0 1 .293.227.262.262 0 0 1-.23.293c-.85.105-1.721.236-2.585.388a.264.264 0 0 1-.305-.213zm13.315-.229a38.3 38.3 0 0 0-2.6-.234.264.264 0 0 1-.247-.277.266.266 0 0 1 .278-.248c.888.05 1.775.13 2.634.238a.262.262 0 1 1-.032.523c-.011 0-.021 0-.033-.002zm-8.101-.44a.263.263 0 0 1 .245-.279 43.818 43.818 0 0 1 2.642-.102h.002c.144 0 .262.116.264.261a.265.265 0 0 1-.261.265c-.857.006-1.735.041-2.611.1h-.018a.263.263 0 0 1-.263-.245zm2.688-1.07a.265.265 0 0 1-.156-.339c.315-.849.568-1.684.753-2.482a.263.263 0 0 1 .513.12 21.15 21.15 0 0 1-.772 2.545.262.262 0 0 1-.338.155zm1.22-5.094a.264.264 0 0 1-.248-.276c.012-.217.019-.436.019-.649 0-.663-.06-1.304-.174-1.903a.264.264 0 0 1 .208-.308.264.264 0 0 1 .308.208c.122.633.183 1.307.183 2.003 0 .223-.006.45-.018.677a.263.263 0 0 1-.263.25c-.005 0-.01 0-.014-.002zm-1.254-5.215a7.75 7.75 0 0 0-1.574-1.98.263.263 0 0 1 .354-.389 8.312 8.312 0 0 1 1.68 2.115.265.265 0 0 1-.103.358.262.262 0 0 1-.357-.104zm-3.678-3.42l-.127-.065a34.128 34.128 0 0 0-2.242-1.019.262.262 0 0 1-.143-.343.264.264 0 0 1 .343-.143c.77.317 1.538.665 2.277 1.035l.133.066c.129.068.18.226.112.355a.26.26 0 0 1-.353.113zm-38.487-.199a.262.262 0 0 1 .14-.344c.038-.015.929-.383 2.5-.894a.263.263 0 0 1 .163.5 36.707 36.707 0 0 0-2.46.88.262.262 0 0 1-.343-.142zm4.987-1.675a.264.264 0 0 1 .183-.323 62.234 62.234 0 0 1 2.56-.65.262.262 0 0 1 .118.511 63.24 63.24 0 0 0-2.538.646.265.265 0 0 1-.323-.184zm28.683-.107a36.719 36.719 0 0 0-2.506-.715.263.263 0 1 1 .126-.51c.86.212 1.715.456 2.544.726a.263.263 0 0 1-.164.5zm-23.566-1.104a.261.261 0 0 1 .209-.306 62.058 62.058 0 0 1 2.605-.436.263.263 0 0 1 .075.521c-.854.124-1.722.268-2.582.43a.262.262 0 0 1-.307-.209zm18.507-.15a40.868 40.868 0 0 0-2.584-.373.264.264 0 0 1 .058-.523c.883.1 1.763.227 2.617.377a.264.264 0 0 1-.045.522.232.232 0 0 1-.046-.004zm-13.308-.625a.262.262 0 0 1 .236-.287c.88-.088 1.766-.155 2.633-.2a.263.263 0 1 1 .027.525 55.899 55.899 0 0 0-2.635.2.263.263 0 0 1-.261-.238zm8.12.036a48.207 48.207 0 0 0-2.567-.067h-.043a.263.263 0 1 1 0-.526h.043c.873 0 1.747.023 2.597.07a.261.261 0 0 1 .248.275.262.262 0 0 1-.262.25c-.005 0-.01 0-.015-.002z"/></g><g><path fill="#44474f" d="M102.008 152.561c-.89-.006-1.777-.022-2.635-.049a.263.263 0 0 1 .017-.526c.854.028 1.736.043 2.621.048a.264.264 0 0 1 .262.265.264.264 0 0 1-.263.262zm2.369-.277a.262.262 0 0 1 .258-.267c.86-.016 1.745-.042 2.628-.079a.263.263 0 1 1 .021.526c-.886.036-1.775.062-2.639.078l-.005.001a.262.262 0 0 1-.263-.259zm-7.637.107a82.59 82.59 0 0 1-2.629-.2.262.262 0 0 1-.237-.287.26.26 0 0 1 .285-.237c.853.08 1.732.145 2.613.2a.264.264 0 0 1-.016.525h-.016zm13.163-.06a.262.262 0 0 1-.261-.247.26.26 0 0 1 .246-.278c.859-.053 1.741-.116 2.62-.186a.264.264 0 0 1 .283.241.265.265 0 0 1-.241.284c-.883.07-1.768.132-2.63.185zm4.983-.655a.26.26 0 0 1 .235-.287c.86-.084 1.736-.177 2.608-.277a.262.262 0 1 1 .059.522c-.873.1-1.753.193-2.615.277l-.026.002a.262.262 0 0 1-.261-.237zm-23.397.226a68.594 68.594 0 0 1-2.609-.385.264.264 0 0 1 .087-.519c.841.142 1.712.271 2.59.383.143.018.245.15.226.294a.261.261 0 0 1-.26.23l-.034-.003zm28.619-.814a.263.263 0 0 1 .227-.294c.853-.11 1.728-.23 2.602-.358a.263.263 0 0 1 .075.521 179.86 179.86 0 0 1-2.644.36.262.262 0 0 1-.26-.229zm-33.821-.067a53.094 53.094 0 0 1-2.568-.615.262.262 0 1 1 .135-.508 53.24 53.24 0 0 0 2.543.61.263.263 0 1 1-.11.513zm39.028-.677a.263.263 0 0 1 .218-.3c.855-.137 1.726-.28 2.592-.43a.264.264 0 0 1 .089.518c-.868.15-1.742.294-2.598.43a.263.263 0 0 1-.301-.217zm5.186-.886a.263.263 0 0 1 .21-.307c.854-.157 1.722-.323 2.581-.493a.265.265 0 0 1 .309.207.264.264 0 0 1-.207.31c-.862.17-1.732.335-2.587.494a.263.263 0 0 1-.306-.211zm-49.316.197a42.33 42.33 0 0 1-2.486-.9.263.263 0 1 1 .196-.489c.787.314 1.612.614 2.454.89a.263.263 0 0 1 .168.331.261.261 0 0 1-.332.168zm54.478-1.21a.265.265 0 0 1 .203-.31c.873-.184 1.73-.368 2.57-.554a.263.263 0 0 1 .113.514c-.841.185-1.7.371-2.574.553a.264.264 0 0 1-.312-.203zm-59.385-.759a33.282 33.282 0 0 1-2.334-1.25.264.264 0 0 1 .267-.454c.731.432 1.504.846 2.297 1.231a.263.263 0 1 1-.23.473zm64.525-.37a.261.261 0 0 1 .196-.316c.875-.204 1.729-.408 2.557-.609a.261.261 0 0 1 .317.192.263.263 0 0 1-.193.318c-.829.202-1.685.407-2.562.611a.263.263 0 0 1-.315-.197zm5.113-1.243a.262.262 0 0 1 .19-.319 268.95 268.95 0 0 0 2.543-.664.263.263 0 0 1 .136.508c-.811.215-1.662.438-2.55.665a.263.263 0 0 1-.319-.19zm-74.193-1.085a26.745 26.745 0 0 1-2.076-1.65.262.262 0 0 1-.024-.37.264.264 0 0 1 .371-.025c.64.564 1.324 1.108 2.035 1.618a.264.264 0 0 1-.154.477.26.26 0 0 1-.152-.05zm79.28-.265a.265.265 0 0 1 .183-.325c.849-.236 1.7-.478 2.529-.719.14-.04.285.04.326.178a.264.264 0 0 1-.18.326c-.831.242-1.683.485-2.534.721a.263.263 0 0 1-.324-.181zm5.058-1.468a.262.262 0 0 1 .173-.328c1.6-.49 2.503-.79 2.512-.794a.263.263 0 1 1 .167.498c-.009.003-.918.307-2.524.8a.296.296 0 0 1-.077.01.261.261 0 0 1-.251-.186zm-88.312-1.773l-.065-.07a66.201 66.201 0 0 1-1.677-1.91.263.263 0 0 1 .402-.339 63.944 63.944 0 0 0 1.662 1.893l.066.071a.264.264 0 0 1-.194.44.261.261 0 0 1-.194-.085zm-3.402-4.03a61.008 61.008 0 0 1-1.575-2.117.262.262 0 0 1 .427-.305 63.741 63.741 0 0 0 1.563 2.1.263.263 0 0 1-.415.321zm-3.06-4.299a61.345 61.345 0 0 1-1.388-2.245.261.261 0 0 1 .093-.359.264.264 0 0 1 .361.093 57.65 57.65 0 0 0 1.375 2.225.261.261 0 0 1-.22.405.265.265 0 0 1-.221-.119zm-2.675-4.549a58.328 58.328 0 0 1-1.179-2.36.26.26 0 0 1 .125-.35.261.261 0 0 1 .349.125c.369.783.763 1.57 1.17 2.34a.264.264 0 0 1-.232.385.265.265 0 0 1-.233-.14zm-2.249-4.775a54.797 54.797 0 0 1-.954-2.462.263.263 0 0 1 .494-.178c.293.814.611 1.634.946 2.44a.265.265 0 0 1-.143.343.265.265 0 0 1-.343-.143zm-1.788-4.967a52.84 52.84 0 0 1-.711-2.543.263.263 0 0 1 .51-.129c.212.84.448 1.686.703 2.52a.262.262 0 1 1-.502.152zm-1.293-5.119a51.104 51.104 0 0 1-.451-2.602.262.262 0 0 1 .222-.298.26.26 0 0 1 .298.221c.126.856.276 1.722.446 2.577a.262.262 0 0 1-.515.102zm-.767-5.224a48.925 48.925 0 0 1-.176-2.636.263.263 0 0 1 .252-.274.266.266 0 0 1 .273.252c.034.864.093 1.741.174 2.61a.263.263 0 0 1-.237.285l-.025.001a.263.263 0 0 1-.261-.238zm.05-5.01a.263.263 0 0 1-.258-.269c.013-.883.053-1.77.117-2.639a.262.262 0 1 1 .524.038 45.822 45.822 0 0 0-.116 2.61.262.262 0 0 1-.263.26zm.357-5.243a.263.263 0 0 1-.226-.295 42.15 42.15 0 0 1 .393-2.388c-.833.04-1.692.054-2.579.04a.263.263 0 0 1 .009-.526c.897.013 1.768.001 2.609-.042a.264.264 0 0 1 .219.1.264.264 0 0 1 .301.312 40.53 40.53 0 0 0-.431 2.574.263.263 0 0 1-.295.225zm-5.052-2.765a55.38 55.38 0 0 1-2.628-.258.262.262 0 1 1 .064-.52c.883.106 1.759.192 2.603.254.145.01.253.136.242.282a.262.262 0 0 1-.261.243h-.02zm7.626-.383a.263.263 0 0 1 .227-.295 26.32 26.32 0 0 0 2.558-.46.265.265 0 0 1 .316.197.263.263 0 0 1-.197.315c-.829.193-1.707.351-2.609.47l-.035.002a.263.263 0 0 1-.26-.229zm-12.867-.29a30.547 30.547 0 0 1-2.571-.637.263.263 0 1 1 .149-.504c.816.241 1.666.452 2.526.624a.263.263 0 0 1-.104.516zm17.982-.86a.264.264 0 0 1 .157-.338 17.16 17.16 0 0 0 2.357-1.058.261.261 0 0 1 .356.105.26.26 0 0 1-.104.356 17.7 17.7 0 0 1-2.43 1.091.263.263 0 0 1-.336-.157zm-23.057-.647a25.838 25.838 0 0 1-2.406-1.114.263.263 0 0 1-.111-.355.265.265 0 0 1 .356-.11c.755.4 1.548.767 2.357 1.092a.263.263 0 1 1-.196.487zm16.372-.21a.262.262 0 0 1-.185-.324c.238-.862.505-1.712.797-2.525a.262.262 0 1 1 .494.177 34.103 34.103 0 0 0-.784 2.488.263.263 0 0 1-.322.183zm11.3-1.602a.262.262 0 0 1 .037-.37 11.223 11.223 0 0 0 1.785-1.835.263.263 0 1 1 .418.32 11.796 11.796 0 0 1-1.87 1.921.263.263 0 0 1-.37-.036zm-32.356-.666a23.732 23.732 0 0 1-2.112-1.608.264.264 0 0 1-.029-.37.264.264 0 0 1 .371-.03 22.73 22.73 0 0 0 2.065 1.572.263.263 0 0 1-.295.436zm22.798-2.686a.263.263 0 0 1-.129-.348c.381-.827.795-1.618 1.232-2.352a.263.263 0 1 1 .452.27 25.136 25.136 0 0 0-1.206 2.301.263.263 0 0 1-.349.13zm-26.827-.76a23.557 23.557 0 0 1-1.694-2.045.263.263 0 1 1 .423-.312c.513.696 1.07 1.37 1.657 2a.263.263 0 0 1-.386.357zm39.621.04a.263.263 0 0 1-.147-.342 7.872 7.872 0 0 0 .566-2.468.265.265 0 0 1 .278-.247.263.263 0 0 1 .246.278 8.432 8.432 0 0 1-.601 2.632.26.26 0 0 1-.342.146zm-10.151-3.81a.263.263 0 0 1-.045-.369 15.997 15.997 0 0 1 1.803-1.967.263.263 0 1 1 .355.388 15.551 15.551 0 0 0-1.744 1.902.264.264 0 0 1-.207.102.265.265 0 0 1-.162-.056zm-32.617-.499a25.11 25.11 0 0 1-1.197-2.368.263.263 0 0 1 .482-.211c.349.795.744 1.574 1.171 2.317a.262.262 0 1 1-.456.262zm42.859-.984c-.298-.838-.782-1.53-1.401-2a.263.263 0 0 1 .32-.418c.698.532 1.243 1.307 1.576 2.241a.264.264 0 0 1-.247.351.263.263 0 0 1-.248-.174zm-6.423-2.083a.264.264 0 0 1 .104-.357c.894-.488 1.772-.753 2.608-.788a.266.266 0 0 1 .274.252.263.263 0 0 1-.252.273c-.756.032-1.555.276-2.378.724a.263.263 0 0 1-.356-.104zm-38.57-1.783a26.779 26.779 0 0 1-.681-2.562.264.264 0 0 1 .203-.312.264.264 0 0 1 .312.202c.18.851.405 1.697.666 2.512a.261.261 0 0 1-.25.343.261.261 0 0 1-.25-.183zm-1.108-5.177c-.099-.87-.16-1.759-.179-2.645a.262.262 0 0 1 .256-.269.264.264 0 0 1 .269.257c.019.87.079 1.743.177 2.596a.263.263 0 0 1-.232.291l-.03.002a.264.264 0 0 1-.261-.232zm.123-5.015a.264.264 0 0 1-.245-.279c.059-.875.155-1.76.289-2.634a.262.262 0 1 1 .519.08 30.249 30.249 0 0 0-.282 2.588.264.264 0 0 1-.263.245zm.747-5.196a.265.265 0 0 1-.194-.318c.204-.85.447-1.709.722-2.548a.265.265 0 0 1 .332-.168.264.264 0 0 1 .168.332 31.82 31.82 0 0 0-.711 2.507.262.262 0 0 1-.255.201.326.326 0 0 1-.062-.006zm1.594-5.002a.265.265 0 0 1-.141-.345c.34-.809.717-1.616 1.122-2.399a.264.264 0 0 1 .467.242c-.398.77-.769 1.564-1.103 2.361a.262.262 0 0 1-.345.141zm2.372-4.685a.264.264 0 0 1-.085-.362c.463-.746.962-1.484 1.483-2.194a.263.263 0 0 1 .423.312 34.462 34.462 0 0 0-1.46 2.16.26.26 0 0 1-.361.084zm3.073-4.257a.262.262 0 0 1-.028-.37 35.066 35.066 0 0 1 1.802-1.939.261.261 0 0 1 .371 0 .264.264 0 0 1 0 .372 34.402 34.402 0 0 0-1.775 1.91.26.26 0 0 1-.37.027zm3.688-3.736a.263.263 0 0 1 .028-.37 35.77 35.77 0 0 1 2.07-1.649.263.263 0 0 1 .312.423 36.301 36.301 0 0 0-2.04 1.624.265.265 0 0 1-.171.064.263.263 0 0 1-.199-.092zm4.2-3.149a.264.264 0 0 1 .082-.363 38.233 38.233 0 0 1 2.283-1.334.266.266 0 0 1 .357.107.264.264 0 0 1-.108.356 38.15 38.15 0 0 0-2.252 1.316.261.261 0 0 1-.362-.082zm4.605-2.523a.262.262 0 0 1 .129-.348 40.523 40.523 0 0 1 2.442-1.014.262.262 0 1 1 .185.491c-.815.31-1.626.645-2.409 1.002a.26.26 0 0 1-.347-.131zm4.897-1.892a.263.263 0 0 1 .174-.329c.186-.057.374-.114.563-.17a.263.263 0 0 1 .149.505l-.558.167a.23.23 0 0 1-.077.013.264.264 0 0 1-.251-.186z"/></g><g><path fill="#44474f" d="M49.655 217.31a29.438 29.438 0 0 0 2.641-.232.263.263 0 0 0-.07-.521c-.849.114-1.722.19-2.593.228a.263.263 0 0 0 .01.525zm-2.64-.005a.263.263 0 0 0 .012-.525 29.695 29.695 0 0 1-2.595-.232.261.261 0 0 0-.295.226.265.265 0 0 0 .226.296c.873.116 1.761.195 2.641.235zm-5.205-.694a.263.263 0 0 0 .058-.519 29.208 29.208 0 0 1-2.513-.683.264.264 0 0 0-.33.17.264.264 0 0 0 .17.33c.831.268 1.692.502 2.558.696a.283.283 0 0 0 .057.006zm13.035-.005a.24.24 0 0 0 .06-.008 24.816 24.816 0 0 0 2.55-.74.261.261 0 0 0 .16-.334.262.262 0 0 0-.335-.162c-.802.28-1.642.524-2.496.725a.263.263 0 1 0 .061.519zM36.815 215a.262.262 0 0 0 .241-.16.261.261 0 0 0-.137-.343 25.89 25.89 0 0 1-2.333-1.147.264.264 0 0 0-.358.102.262.262 0 0 0 .102.357c.762.424 1.562.817 2.381 1.17a.253.253 0 0 0 .103.02zm22.98-.135a.261.261 0 0 0 .113-.027 21.155 21.155 0 0 0 1.758-.962.264.264 0 0 0 .087-.361.264.264 0 0 0-.363-.087 20.49 20.49 0 0 1-1.71.938.262.262 0 0 0 .114.499zm-27.559-2.422a.264.264 0 0 0 .152-.478 22.232 22.232 0 0 1-2.022-1.624.263.263 0 1 0-.353.39 22.892 22.892 0 0 0 2.071 1.663.27.27 0 0 0 .152.049zm-3.876-3.526a.263.263 0 0 0 .2-.433 19.521 19.521 0 0 1-1.548-2.076.263.263 0 1 0-.442.285 20.215 20.215 0 0 0 1.59 2.133c.053.06.126.09.2.09zm-2.839-4.401a.274.274 0 0 0 .111-.024.264.264 0 0 0 .127-.35 19.254 19.254 0 0 1-.934-2.414.263.263 0 1 0-.502.157c.265.849.588 1.684.96 2.48a.262.262 0 0 0 .238.15zm-1.564-4.997a.262.262 0 0 0 .26-.308 21.61 21.61 0 0 1-.294-2.576.264.264 0 0 0-.526.03c.05.895.152 1.782.302 2.637a.262.262 0 0 0 .258.217zm-.3-5.231c.14 0 .255-.11.262-.25.043-.845.13-1.716.257-2.59a.262.262 0 1 0-.52-.076c-.13.89-.218 1.778-.262 2.639a.263.263 0 0 0 .25.276h.013zm.747-5.197c.12 0 .228-.083.256-.204a37 37 0 0 1 .675-2.52.262.262 0 1 0-.502-.154 38.247 38.247 0 0 0-.686 2.556.264.264 0 0 0 .257.322zm1.526-5.024a.264.264 0 0 0 .247-.17c.3-.797.631-1.61.988-2.42a.262.262 0 1 0-.48-.212 47.71 47.71 0 0 0-1 2.446.263.263 0 0 0 .245.356zm2.116-4.81a.263.263 0 0 0 .235-.145c.382-.761.795-1.538 1.228-2.312a.261.261 0 0 0-.1-.357.261.261 0 0 0-.358.1 59.138 59.138 0 0 0-1.24 2.333.263.263 0 0 0 .235.38zm2.564-4.59a.262.262 0 0 0 .225-.126c.446-.727.922-1.47 1.412-2.207a.262.262 0 1 0-.438-.291 73.311 73.311 0 0 0-1.422 2.224.261.261 0 0 0 .223.4zm2.913-4.384a.261.261 0 0 0 .214-.11 91.015 91.015 0 0 1 1.557-2.111.263.263 0 0 0-.418-.318 87.322 87.322 0 0 0-1.567 2.124.263.263 0 0 0 .214.415zm3.181-4.186a.26.26 0 0 0 .205-.098c.54-.668 1.102-1.35 1.672-2.022a.263.263 0 1 0-.4-.34c-.575.677-1.14 1.36-1.68 2.032a.263.263 0 0 0 .203.428zm3.402-4.014c.073 0 .145-.03.197-.087.572-.643 1.166-1.296 1.767-1.943a.262.262 0 0 0-.014-.371.262.262 0 0 0-.37.014c-.604.648-1.202 1.304-1.776 1.95a.262.262 0 0 0 .196.437zm3.584-3.854a.26.26 0 0 0 .19-.08c.6-.62 1.221-1.25 1.845-1.867a.263.263 0 1 0-.37-.373c-.626.62-1.25 1.252-1.853 1.875a.261.261 0 0 0 .188.445zm3.737-3.707c.065 0 .13-.024.181-.072.627-.6 1.272-1.204 1.916-1.8a.262.262 0 1 0-.355-.386c-.648.597-1.295 1.204-1.924 1.805a.263.263 0 0 0 .182.453zm3.871-3.568a.262.262 0 0 0 .174-.067c.652-.58 1.318-1.162 1.98-1.731a.263.263 0 1 0-.343-.399c-.665.572-1.333 1.156-1.985 1.737a.263.263 0 0 0 .174.46zm3.994-3.435c.06 0 .12-.02.168-.061.68-.564 1.365-1.123 2.038-1.662a.262.262 0 1 0-.328-.41c-.675.54-1.364 1.102-2.046 1.668a.262.262 0 0 0 .168.465zm4.116-3.292a.261.261 0 0 0 .16-.054c1.32-1.013 2.105-1.572 2.112-1.578a.262.262 0 0 0 .063-.366.264.264 0 0 0-.367-.062c-.008.005-.8.57-2.128 1.589a.263.263 0 0 0 .16.47z"/></g><g><path fill="#44474f" d="M204.832 108.958c-.006-.008-.601-.784-1.565-2.145a.262.262 0 0 1 .063-.366.26.26 0 0 1 .365.063 74.338 74.338 0 0 0 1.554 2.127.265.265 0 0 1-.05.37.264.264 0 0 1-.368-.049zm-3.069-4.316c-.486-.716-.977-1.456-1.46-2.197a.263.263 0 1 1 .441-.287c.481.74.97 1.476 1.454 2.19a.263.263 0 1 1-.434.294zm-2.879-4.422a143.15 143.15 0 0 1-1.378-2.248.264.264 0 0 1 .09-.36.265.265 0 0 1 .362.09c.445.742.908 1.496 1.373 2.24a.263.263 0 0 1-.447.278zm-2.714-4.522c-.441-.766-.876-1.539-1.293-2.299a.262.262 0 0 1 .103-.356.262.262 0 0 1 .358.103c.415.757.849 1.527 1.287 2.29a.262.262 0 1 1-.456.262zm-2.54-4.623c-.41-.785-.811-1.576-1.195-2.35a.263.263 0 0 1 .472-.232c.38.77.782 1.557 1.19 2.34a.26.26 0 0 1-.111.353.25.25 0 0 1-.121.031.264.264 0 0 1-.234-.142zm-2.338-4.728c-.375-.805-.739-1.615-1.083-2.405a.265.265 0 0 1 .136-.347.264.264 0 0 1 .346.137c.343.786.705 1.592 1.078 2.393a.262.262 0 0 1-.238.374.263.263 0 0 1-.239-.152zm-2.099-4.836a82.79 82.79 0 0 1-.946-2.462.263.263 0 0 1 .494-.181c.296.806.61 1.63.94 2.448a.263.263 0 1 1-.488.195zm-1.813-4.958a68.339 68.339 0 0 1-.772-2.525.263.263 0 1 1 .505-.144c.234.821.493 1.664.768 2.504a.262.262 0 0 1-.25.345.264.264 0 0 1-.25-.18zm-1.444-5.08a54.328 54.328 0 0 1-.552-2.584.262.262 0 1 1 .518-.096c.156.834.34 1.695.547 2.558a.263.263 0 0 1-.513.122zm-.968-5.194a41.36 41.36 0 0 1-.256-2.633.263.263 0 1 1 .525-.034c.055.846.139 1.72.254 2.6a.264.264 0 0 1-.228.294l-.034.002a.265.265 0 0 1-.26-.229zm-.07-5.014a.264.264 0 0 1-.26-.265 31.18 31.18 0 0 1 .138-2.648.266.266 0 0 1 .287-.236c.145.015.25.143.236.287a30.109 30.109 0 0 0-.135 2.602.263.263 0 0 1-.263.26zm10.394-2.337c-.845 0-1.722-.053-2.605-.158a.262.262 0 1 1 .062-.521c.862.101 1.718.153 2.543.153h.047a.264.264 0 1 1 0 .526zm2.406-.413a.263.263 0 0 1 .222-.297 15.128 15.128 0 0 0 2.513-.583.263.263 0 1 1 .163.5 15.64 15.64 0 0 1-2.638.606.264.264 0 0 1-.26-.226zm-7.627-.197a28.197 28.197 0 0 1-2.557-.71.262.262 0 1 1 .163-.499 27.53 27.53 0 0 0 2.509.696.262.262 0 0 1-.115.513zm12.613-1.368a.263.263 0 0 1 .092-.36 9.706 9.706 0 0 0 1.999-1.584.263.263 0 1 1 .377.366 10.211 10.211 0 0 1-2.108 1.67.264.264 0 0 1-.36-.091zm-17.65-.28a30.782 30.782 0 0 1-2.386-1.152.262.262 0 1 1 .248-.463c.764.41 1.554.79 2.347 1.131a.263.263 0 0 1-.208.483zm.33-.635a.261.261 0 0 1-.208-.309c.173-.88.391-1.746.651-2.574a.263.263 0 0 1 .503.157c-.254.81-.47 1.658-.638 2.52a.262.262 0 0 1-.308.206zm-4.996-1.867a30.361 30.361 0 0 1-2.157-1.54.263.263 0 0 1 .324-.415c.676.531 1.39 1.04 2.118 1.514.122.08.156.243.077.365a.265.265 0 0 1-.22.12.257.257 0 0 1-.143-.044zm26.047-.84a.264.264 0 0 1-.093-.36c.427-.724.785-1.51 1.064-2.338a.262.262 0 1 1 .498.168 13.076 13.076 0 0 1-1.11 2.436.264.264 0 0 1-.36.094zm-19.531-2.312a.26.26 0 0 1-.131-.347c.366-.81.785-1.6 1.246-2.349a.262.262 0 0 1 .447.275c-.45.731-.858 1.5-1.214 2.291a.265.265 0 0 1-.349.13zm-10.684-.118a27.298 27.298 0 0 1-1.842-1.908.263.263 0 1 1 .394-.347 26.73 26.73 0 0 0 1.807 1.872.264.264 0 0 1-.18.455.26.26 0 0 1-.18-.072zm31.999-2.479a.264.264 0 0 1-.227-.296 13.496 13.496 0 0 0 .108-2.57.263.263 0 1 1 .524-.03 14.204 14.204 0 0 1-.11 2.672.264.264 0 0 1-.295.224zm-35.487-1.513a24.43 24.43 0 0 1-1.412-2.247.263.263 0 0 1 .46-.254c.413.746.879 1.486 1.383 2.197a.265.265 0 0 1-.062.368.27.27 0 0 1-.153.047.263.263 0 0 1-.215-.11zm16.86-.388a.261.261 0 0 1-.04-.369c.175-.217.357-.433.542-.644.405-.463.813-.913 1.214-1.338a.263.263 0 0 1 .371-.01c.106.1.11.266.01.371-.395.42-.798.864-1.2 1.322-.178.206-.356.417-.527.63a.26.26 0 0 1-.37.038zm18.093-3.498a8.466 8.466 0 0 0-1.035-2.318.263.263 0 1 1 .44-.288 8.945 8.945 0 0 1 1.099 2.463.261.261 0 0 1-.253.335.263.263 0 0 1-.252-.192zm-14.514-.344a.263.263 0 0 1 .014-.372 28.01 28.01 0 0 1 2.026-1.71.263.263 0 1 1 .318.417 28.43 28.43 0 0 0-1.988 1.68.259.259 0 0 1-.178.07.265.265 0 0 1-.193-.085zm-22.999-.413a21.527 21.527 0 0 1-.851-2.516.262.262 0 0 1 .185-.322.26.26 0 0 1 .322.184c.224.827.503 1.653.83 2.456a.264.264 0 0 1-.243.363.261.261 0 0 1-.243-.165zm27.155-2.786a.263.263 0 0 1 .1-.358 12.473 12.473 0 0 1 2.451-1.079.263.263 0 0 1 .154.503c-.75.23-1.54.577-2.347 1.034a.265.265 0 0 1-.359-.1zm7.56-.536a5.017 5.017 0 0 0-2.358-.733.265.265 0 0 1-.247-.279.265.265 0 0 1 .278-.247c.95.058 1.825.33 2.603.812a.264.264 0 0 1-.138.486.257.257 0 0 1-.137-.039zm-36.095-1.799a21.056 21.056 0 0 1-.195-2.649.263.263 0 0 1 .259-.266c.141.006.264.116.265.261.01.863.073 1.732.19 2.583a.263.263 0 1 1-.52.071zm.167-5.013a.262.262 0 0 1-.236-.286 27.79 27.79 0 0 1 .379-2.624.263.263 0 0 1 .516.1c-.162.83-.287 1.695-.372 2.574a.264.264 0 0 1-.263.238c-.007 0-.016 0-.025-.002zm.96-5.155a.262.262 0 0 1-.173-.329c.265-.856.578-1.693.933-2.486.059-.133.215-.192.346-.133a.261.261 0 0 1 .133.347 21.927 21.927 0 0 0-.91 2.428.263.263 0 0 1-.33.173zm2.083-4.807a.263.263 0 0 1-.087-.362c.464-.757.982-1.488 1.539-2.169a.263.263 0 0 1 .407.333 19.143 19.143 0 0 0-1.498 2.111.262.262 0 0 1-.361.087zm3.26-4.098a.262.262 0 0 1 .015-.37 19.594 19.594 0 0 1 2.07-1.672.262.262 0 1 1 .301.43 19.231 19.231 0 0 0-2.014 1.627.258.258 0 0 1-.178.07.26.26 0 0 1-.193-.085zM179.489 15a.263.263 0 0 1 .11-.355c.774-.405 1.59-.77 2.425-1.086a.263.263 0 0 1 .34.153.264.264 0 0 1-.154.34c-.815.307-1.612.664-2.366 1.058a.26.26 0 0 1-.354-.11zm4.879-1.917a.263.263 0 0 1 .189-.32 25.71 25.71 0 0 1 2.602-.516.263.263 0 1 1 .076.52c-.864.125-1.722.295-2.549.505a.261.261 0 0 1-.319-.189zm13.208.178a29.193 29.193 0 0 0-2.56-.482.262.262 0 1 1 .075-.519c.87.123 1.747.29 2.604.491a.263.263 0 0 1-.06.518.247.247 0 0 1-.06-.008zm-5.15-.73a27.887 27.887 0 0 0-2.603-.007.26.26 0 0 1-.275-.25.265.265 0 0 1 .251-.275 28.295 28.295 0 0 1 2.653.008.263.263 0 1 1-.014.525h-.013z"/></g><g><path fill="#44474f" d="M276.16 65.555a.262.262 0 0 1-.255-.271.264.264 0 0 1 .27-.254c.875.025 1.743.028 2.616.009.135-.01.264.113.268.257a.263.263 0 0 1-.259.269 52.208 52.208 0 0 1-2.64-.01zm4.998-.361a.264.264 0 0 1 .242-.283 43.55 43.55 0 0 0 2.597-.276.263.263 0 0 1 .07.52c-.856.119-1.739.212-2.628.28-.007.002-.014.002-.02.002a.263.263 0 0 1-.261-.243zm-7.635.223a58.065 58.065 0 0 1-2.629-.256.262.262 0 1 1 .063-.521c.873.103 1.75.189 2.605.253a.263.263 0 0 1-.02.525l-.018-.001zm-5.243-.621a69.173 69.173 0 0 1-2.596-.468.263.263 0 0 1 .103-.515c.858.172 1.725.328 2.578.465a.263.263 0 0 1-.042.522.2.2 0 0 1-.042-.004zm18.085-.288a.263.263 0 0 1 .205-.311c.859-.175 1.713-.38 2.535-.61a.263.263 0 1 1 .142.506c-.835.233-1.701.44-2.573.62a.263.263 0 0 1-.309-.205zm-23.26-.746a73.002 73.002 0 0 1-2.556-.662.263.263 0 0 1 .143-.506c.834.232 1.686.454 2.536.657a.262.262 0 1 1-.122.511zm28.325-.633a.263.263 0 0 1 .157-.336 32.65 32.65 0 0 0 2.413-.987.26.26 0 0 1 .347.13.26.26 0 0 1-.13.347c-.79.364-1.616.7-2.45 1.003a.263.263 0 0 1-.337-.157zm-33.41-.79a42.091 42.091 0 0 1-2.501-.88.262.262 0 1 1 .196-.487c.009.003.914.366 2.467.868a.262.262 0 1 1-.161.5zm38.168-1.413a.263.263 0 0 1 .075-.364 15.329 15.329 0 0 0 2.03-1.593.263.263 0 1 1 .358.384A15.924 15.924 0 0 1 296.553 61a.263.263 0 0 1-.364-.075zm3.882-3.504a.263.263 0 0 1-.05-.368 15.72 15.72 0 0 0 1.38-2.181.263.263 0 0 1 .466.244 16.307 16.307 0 0 1-1.428 2.253.261.261 0 0 1-.368.052zm2.517-4.59a.262.262 0 0 1-.162-.333c.277-.798.504-1.638.678-2.5a.262.262 0 1 1 .514.105 19.67 19.67 0 0 1-.697 2.567.262.262 0 0 1-.334.162zm1.115-5.12a.264.264 0 0 1-.242-.283 23.79 23.79 0 0 0 .066-2.597.262.262 0 0 1 .255-.27c.148.004.266.11.27.256a24.36 24.36 0 0 1-.066 2.653.263.263 0 0 1-.262.242l-.022-.001zm2.173-4.798c-.448 0-.9-.01-1.342-.028a.263.263 0 0 1 .022-.525 32.132 32.132 0 0 0 2.606.002.262.262 0 1 1 .02.525c-.434.017-.872.026-1.3.026zm3.654-.468a.262.262 0 0 1 .229-.292 36.573 36.573 0 0 0 2.577-.405.261.261 0 0 1 .308.208.262.262 0 0 1-.208.308c-.875.17-1.755.307-2.615.41l-.03.003a.263.263 0 0 1-.262-.232zm-7.637.206a27.97 27.97 0 0 1-2.608-.48.263.263 0 0 1 .12-.513c.833.197 1.693.355 2.558.47a.263.263 0 0 1-.035.525l-.035-.002zm1.43-.414a28.045 28.045 0 0 0-.454-2.564.262.262 0 0 1 .512-.116c.196.864.351 1.743.463 2.614a.262.262 0 0 1-.227.294l-.033.002a.262.262 0 0 1-.26-.23zm11.37-.75a.264.264 0 0 1 .187-.322c.289-.076.579-.156.87-.24a.262.262 0 1 1 .145.505c-.295.085-.59.166-.881.243a.264.264 0 0 1-.321-.186zm-17.957-.052a24.46 24.46 0 0 1-2.459-1 .262.262 0 1 1 .225-.475 24.13 24.13 0 0 0 2.407.978.263.263 0 0 1-.173.497zm-4.793-2.268a21.535 21.535 0 0 1-2.17-1.538.264.264 0 0 1-.038-.37.264.264 0 0 1 .37-.04 20.796 20.796 0 0 0 2.115 1.502.264.264 0 0 1-.138.486.252.252 0 0 1-.14-.04zm10.233-2.004a27.274 27.274 0 0 0-.928-2.43.262.262 0 1 1 .48-.211c.353.798.67 1.632.948 2.478a.262.262 0 1 1-.5.163zm-14.353-1.346a15.905 15.905 0 0 1-1.657-2.092.263.263 0 1 1 .438-.29c.455.69.994 1.37 1.604 2.023a.263.263 0 0 1-.385.359zm12.257-3.407a21.57 21.57 0 0 0-1.42-2.172.263.263 0 1 1 .42-.314 22.052 22.052 0 0 1 1.456 2.225.263.263 0 1 1-.456.26zm-15.147-1.067c-.342-.916-.515-1.793-.515-2.607v-.053a.258.258 0 0 1 .266-.26.263.263 0 0 1 .26.268l-.001.045c0 .75.163 1.566.482 2.422a.263.263 0 0 1-.492.185zm12.034-3.063a13.895 13.895 0 0 0-1.979-1.646.261.261 0 0 1-.07-.364.264.264 0 0 1 .366-.071 14.517 14.517 0 0 1 2.055 1.708.263.263 0 1 1-.371.373zm-11.659-1.841a.264.264 0 0 1-.046-.37c.545-.696 1.326-1.187 2.324-1.461a.262.262 0 1 1 .14.506c-.887.244-1.576.674-2.049 1.28a.264.264 0 0 1-.369.045zm7.414-.99a8.851 8.851 0 0 0-2.479-.546.263.263 0 1 1 .037-.525 9.424 9.424 0 0 1 2.626.578.264.264 0 0 1-.091.51.272.272 0 0 1-.093-.017z"/></g><g><path fill="#44474f" d="M283.732 188.56a.264.264 0 0 1 .001-.525h.002c.887.006 1.766-.002 2.618-.025a.268.268 0 0 1 .27.256.263.263 0 0 1-.256.27 83.27 83.27 0 0 1-2.077.027l-.558-.002zm-2.636-.057a99.924 99.924 0 0 1-2.632-.132.263.263 0 0 1-.245-.28.265.265 0 0 1 .28-.245c.884.057 1.765.1 2.616.132a.263.263 0 0 1-.009.525zm7.625-.331a.263.263 0 0 1 .246-.278c.883-.056 1.76-.13 2.606-.218a.263.263 0 0 1 .054.523c-.853.09-1.737.163-2.626.219h-.018a.263.263 0 0 1-.262-.246zm-12.887-.017a39.72 39.72 0 0 1-2.618-.377.265.265 0 0 1-.212-.306.264.264 0 0 1 .305-.212c.838.15 1.707.276 2.582.372a.264.264 0 0 1 .233.29.265.265 0 0 1-.29.233zm18.112-.51a.262.262 0 0 1 .22-.3 51.036 51.036 0 0 0 2.572-.455.264.264 0 0 1 .31.205.263.263 0 0 1-.205.31 52.078 52.078 0 0 1-2.637.464.263.263 0 0 1-.26-.224zm-23.314-.432a31.628 31.628 0 0 1-2.534-.77.261.261 0 0 1-.16-.334.262.262 0 0 1 .335-.161c.803.282 1.641.536 2.49.757a.263.263 0 0 1 .19.32.264.264 0 0 1-.32.188zm28.461-.594a.264.264 0 0 1 .187-.322 40.768 40.768 0 0 0 2.501-.743.263.263 0 0 1 .166.499c-.818.272-1.67.526-2.532.753a.264.264 0 0 1-.322-.187zm-33.452-1.166a26.37 26.37 0 0 1-2.352-1.225.261.261 0 0 1-.093-.36.26.26 0 0 1 .36-.093c.733.432 1.51.835 2.304 1.2a.264.264 0 0 1-.109.502.263.263 0 0 1-.11-.024zm38.442-.46a.261.261 0 0 1 .142-.343 35.103 35.103 0 0 0 2.372-1.077.263.263 0 0 1 .353.117.263.263 0 0 1-.118.352c-.775.388-1.584.756-2.408 1.094a.26.26 0 0 1-.341-.143zm-43.006-2.232a23.005 23.005 0 0 1-2.033-1.708.263.263 0 1 1 .361-.382 22.23 22.23 0 0 0 1.986 1.668.263.263 0 0 1-.314.422zm47.712-.083a.26.26 0 0 1 .088-.36c.747-.45 1.477-.934 2.171-1.436a.264.264 0 0 1 .368.06.262.262 0 0 1-.06.366 31.661 31.661 0 0 1-2.207 1.459.257.257 0 0 1-.136.038.259.259 0 0 1-.224-.127zm4.277-3.037a.262.262 0 0 1 .028-.37 31.845 31.845 0 0 0 1.902-1.776.263.263 0 0 1 .374.369 31.65 31.65 0 0 1-1.934 1.805.26.26 0 0 1-.37-.028zm-55.84-.525a21.62 21.62 0 0 1-1.568-2.147.262.262 0 1 1 .442-.283c.464.726.98 1.43 1.53 2.094a.261.261 0 0 1-.202.43.265.265 0 0 1-.203-.094zm59.554-3.177a.263.263 0 0 1-.033-.37 33.832 33.832 0 0 0 1.596-2.06.263.263 0 0 1 .367-.058.26.26 0 0 1 .06.366 34.857 34.857 0 0 1-1.62 2.09.267.267 0 0 1-.202.093.26.26 0 0 1-.168-.061zm-62.412-1.293a21.63 21.63 0 0 1-.993-2.466.263.263 0 1 1 .5-.166c.271.82.597 1.63.967 2.405a.264.264 0 0 1-.237.376.261.261 0 0 1-.237-.15zm65.505-2.945a.262.262 0 0 1-.086-.362c.446-.725.882-1.488 1.294-2.264a.264.264 0 0 1 .355-.11.263.263 0 0 1 .11.356 41.792 41.792 0 0 1-1.312 2.294.262.262 0 0 1-.36.086zm-67.18-2.087a22.06 22.06 0 0 1-.37-2.631.263.263 0 1 1 .523-.042c.07.862.191 1.726.361 2.568a.264.264 0 0 1-.258.315.261.261 0 0 1-.257-.21zm69.673-2.532a.262.262 0 0 1-.13-.348c.355-.775.7-1.583 1.026-2.403a.263.263 0 1 1 .49.194 52.87 52.87 0 0 1-1.038 2.428.264.264 0 0 1-.348.129zm-69.847-2.483a.263.263 0 0 1-.252-.272c.033-.883.12-1.773.258-2.645a.263.263 0 0 1 .3-.22.263.263 0 0 1 .218.302c-.133.852-.217 1.72-.25 2.582a.264.264 0 0 1-.263.253zm71.814-2.387a.264.264 0 0 1-.164-.334c.277-.8.546-1.638.802-2.49a.263.263 0 0 1 .503.152 64.466 64.466 0 0 1-.807 2.51.263.263 0 0 1-.334.162zm-71.06-2.801a.263.263 0 0 1-.182-.325c.241-.853.534-1.698.871-2.51a.263.263 0 0 1 .486.2c-.33.795-.616 1.619-.85 2.452a.263.263 0 0 1-.325.183zm72.591-2.223a.262.262 0 0 1-.188-.32c.214-.826.423-1.681.618-2.545a.262.262 0 1 1 .513.115c-.197.87-.406 1.73-.623 2.56a.262.262 0 0 1-.32.19zm-70.635-2.642a.263.263 0 0 1-.099-.358c.44-.773.93-1.522 1.457-2.226a.263.263 0 1 1 .421.316 20.717 20.717 0 0 0-1.42 2.17.26.26 0 0 1-.359.098zm71.841-2.472a.264.264 0 0 1-.193-.32 57.39 57.39 0 0 1 .69-2.547.26.26 0 0 1 .325-.176.262.262 0 0 1 .178.326c-.242.82-.472 1.67-.682 2.524a.264.264 0 0 1-.318.193zm-68.748-1.761a.261.261 0 0 1-.004-.371 19.945 19.945 0 0 1 1.98-1.778c.115-.09.28-.07.37.044a.266.266 0 0 1-.045.37 19.506 19.506 0 0 0-1.929 1.73.263.263 0 0 1-.372.005zm4.081-3.288a.264.264 0 0 1 .094-.36 20.29 20.29 0 0 1 2.376-1.194.263.263 0 0 1 .205.484c-.797.337-1.576.728-2.316 1.164a.263.263 0 0 1-.359-.094zm66.134.006a.263.263 0 0 1-.16-.335c.292-.837.608-1.667.94-2.468a.262.262 0 1 1 .485.2 48.624 48.624 0 0 0-.93 2.442.263.263 0 0 1-.335.16zm-61.35-2.155a.263.263 0 0 1 .143-.342 20.518 20.518 0 0 0 2.335-1.126.261.261 0 0 1 .357.098.264.264 0 0 1-.099.359c-.746.423-1.55.81-2.394 1.156a.262.262 0 0 1-.343-.145zm4.582-2.537a.263.263 0 0 1 .043-.37 14.425 14.425 0 0 0 1.875-1.766.26.26 0 0 1 .37-.024c.11.096.12.263.024.37a14.879 14.879 0 0 1-1.943 1.833.263.263 0 0 1-.369-.043zm58.75-.172a.261.261 0 0 1-.122-.35 40.64 40.64 0 0 1 1.23-2.341.263.263 0 1 1 .456.26c-.42.74-.83 1.518-1.213 2.31a.265.265 0 0 1-.237.149.25.25 0 0 1-.115-.028zm-55.236-3.692a.263.263 0 0 1-.097-.358c.427-.746.774-1.536 1.032-2.35a.263.263 0 0 1 .501.159 12.544 12.544 0 0 1-1.077 2.45.263.263 0 0 1-.359.099zm57.802-.888a.262.262 0 0 1-.074-.364 34.267 34.267 0 0 1 1.55-2.145.262.262 0 0 1 .37-.045c.113.09.133.255.044.369a33.8 33.8 0 0 0-1.526 2.112.263.263 0 0 1-.364.073zm-56.118-4.047a.264.264 0 0 1-.236-.288c.04-.408.06-.825.06-1.24 0-.438-.023-.887-.067-1.331a.264.264 0 0 1 .236-.288.26.26 0 0 1 .287.235 13.473 13.473 0 0 1 .007 2.675.262.262 0 0 1-.26.237h-.027zm59.327-.105a.263.263 0 0 1-.014-.372 29.504 29.504 0 0 1 1.891-1.857.264.264 0 0 1 .351.393 28.172 28.172 0 0 0-1.857 1.822.262.262 0 0 1-.37.014zm3.882-3.528a.262.262 0 0 1 .06-.367 24.557 24.557 0 0 1 2.226-1.445.263.263 0 0 1 .261.457c-.738.422-1.47.898-2.179 1.412a.265.265 0 0 1-.368-.057zm-63.939-1.757a16.38 16.38 0 0 0-.906-2.418.263.263 0 1 1 .475-.223c.383.818.697 1.658.937 2.497a.265.265 0 0 1-.18.326.263.263 0 0 1-.325-.182zm68.466-.892a.262.262 0 0 1 .138-.344c.827-.35 1.671-.646 2.511-.88a.262.262 0 0 1 .141.505c-.819.229-1.642.517-2.447.859a.262.262 0 0 1-.343-.14zm12.94-.364a13.78 13.78 0 0 0-2.47-.731.264.264 0 0 1-.207-.31.265.265 0 0 1 .31-.206c.887.176 1.75.432 2.562.76a.262.262 0 1 1-.196.487zm-136.573-.17a.262.262 0 0 1-.077-.362c.021-.034.554-.848 1.688-2.08a.263.263 0 1 1 .387.355c-1.1 1.197-1.63 2.003-1.635 2.01a.263.263 0 0 1-.363.078zm128.663-.93a.264.264 0 0 1 .227-.294 17.23 17.23 0 0 1 2.662-.142.261.261 0 0 1 .255.268.265.265 0 0 1-.269.257 16.796 16.796 0 0 0-2.614.14.265.265 0 0 1-.26-.228zm-75.669-2.318a19.462 19.462 0 0 0-1.568-2.062.264.264 0 0 1 .026-.371.262.262 0 0 1 .37.026 20.05 20.05 0 0 1 1.611 2.118.263.263 0 0 1-.439.289zm-49.515-.687a.264.264 0 0 1 .02-.372 32.445 32.445 0 0 1 2.038-1.694.262.262 0 1 1 .32.417 32.346 32.346 0 0 0-2.007 1.667.256.256 0 0 1-.175.068.266.266 0 0 1-.196-.086zm4.145-3.23a.262.262 0 0 1 .077-.362 35.87 35.87 0 0 1 2.271-1.361.264.264 0 0 1 .357.104.264.264 0 0 1-.104.357c-.763.42-1.517.87-2.238 1.34a.26.26 0 0 1-.363-.077zm41.98.009a22.217 22.217 0 0 0-2.03-1.616.265.265 0 0 1-.064-.367.264.264 0 0 1 .366-.063c.728.514 1.43 1.07 2.08 1.654a.263.263 0 0 1-.352.392zm-37.399-2.575a.263.263 0 0 1 .128-.35 38.977 38.977 0 0 1 2.437-1.025.263.263 0 1 1 .188.49c-.814.31-1.623.652-2.404 1.014a.263.263 0 0 1-.349-.129zm33.166-.418a25.098 25.098 0 0 0-2.338-1.133.263.263 0 1 1 .204-.485c.82.346 1.622.736 2.388 1.158a.263.263 0 0 1-.254.46zm-28.274-1.49a.263.263 0 0 1 .173-.328 42.584 42.584 0 0 1 2.548-.7.263.263 0 1 1 .124.511c-.848.205-1.695.437-2.516.69a.262.262 0 0 1-.329-.174zm23.492-.533a27.652 27.652 0 0 0-2.519-.65.264.264 0 0 1-.204-.311.265.265 0 0 1 .312-.203c.87.182 1.733.404 2.566.662a.263.263 0 0 1-.077.514.264.264 0 0 1-.078-.012zm-18.397-.733a.264.264 0 0 1 .212-.306 46.86 46.86 0 0 1 2.611-.393.263.263 0 0 1 .064.521c-.867.107-1.736.237-2.582.39a.262.262 0 0 1-.305-.212zm13.31-.333c-.852-.1-1.725-.165-2.598-.195a.262.262 0 0 1-.254-.271.266.266 0 0 1 .272-.254c.887.029 1.775.096 2.64.197a.263.263 0 1 1-.03.525l-.03-.002zm-8.103-.337a.263.263 0 0 1 .244-.28c.866-.06 1.752-.1 2.637-.116a.256.256 0 0 1 .268.257.264.264 0 0 1-.258.269c-.876.016-1.754.054-2.61.114h-.019a.263.263 0 0 1-.262-.244z"/></g><g><path fill="#44474f" d="M342.604 207.006c.083 0 .165-.04.216-.113.014-.022.376-.54.869-1.434a.263.263 0 0 0-.46-.254c-.48.866-.837 1.382-.84 1.387a.263.263 0 0 0 .215.414zm1.998-3.778a.264.264 0 0 0 .243-.163c.35-.839.645-1.685.877-2.51a.264.264 0 0 0-.507-.142 21.233 21.233 0 0 1-.855 2.45.263.263 0 0 0 .242.365zm-18.843-4.327h.022c.743-.062 1.617-.315 2.596-.752a.263.263 0 1 0-.214-.48c-.925.413-1.742.65-2.426.708a.263.263 0 0 0-.24.284c.01.137.126.24.262.24zm20.232-.729a.264.264 0 0 0 .26-.232c.075-.604.113-1.204.113-1.782 0-.299-.01-.598-.031-.89a.259.259 0 0 0-.28-.245.263.263 0 0 0-.244.281c.019.28.029.567.029.854 0 .557-.036 1.135-.107 1.72a.262.262 0 0 0 .26.294zm-22.514-.236a.263.263 0 0 0 .226-.397c-.223-.379-.336-.876-.336-1.478 0-.284.026-.589.077-.909a.263.263 0 0 0-.52-.083 6.374 6.374 0 0 0-.082.992c-.001.697.137 1.284.408 1.745.049.084.137.13.227.13zm7.1-1.016a.267.267 0 0 0 .144-.042c.778-.505 1.48-1.07 2.085-1.68a.264.264 0 0 0-.001-.373.264.264 0 0 0-.372.002 11.941 11.941 0 0 1-1.997 1.61.264.264 0 0 0 .142.483zm3.639-3.722a.263.263 0 0 0 .228-.13c.444-.765.793-1.599 1.038-2.478a.263.263 0 0 0-.507-.142 10.13 10.13 0 0 1-.986 2.356.262.262 0 0 0 .227.394zm11.387-.23a.261.261 0 0 0 .251-.34 10.972 10.972 0 0 0-1.096-2.45.265.265 0 0 0-.361-.09.263.263 0 0 0-.09.361c.443.732.794 1.517 1.044 2.333a.264.264 0 0 0 .252.186zm-21.651-.102a.263.263 0 0 0 .242-.157c.333-.762.75-1.523 1.243-2.263a.263.263 0 0 0-.439-.291c-.508.765-.94 1.553-1.286 2.343a.263.263 0 0 0 .24.368zm18.973-4.36a.264.264 0 0 0 .189-.446 14.518 14.518 0 0 0-2.038-1.729.264.264 0 0 0-.303.43 14.07 14.07 0 0 1 1.964 1.665c.05.053.12.08.188.08zm-16.084-.006c.07 0 .142-.028.193-.084a14.36 14.36 0 0 1 1.913-1.73.263.263 0 1 0-.316-.42 14.863 14.863 0 0 0-1.982 1.793.262.262 0 0 0 .192.441zm8.805-.308a.262.262 0 0 0 .262-.248c.015-.272.023-.553.023-.835 0-.59-.034-1.206-.103-1.832a.263.263 0 0 0-.522.057c.066.607.1 1.205.1 1.775 0 .271-.007.542-.023.806a.263.263 0 0 0 .248.277zm3.023-2.723a.263.263 0 0 0 .113-.5 9.724 9.724 0 0 0-2.57-.81.263.263 0 0 0-.084.519c.814.132 1.63.39 2.429.765a.248.248 0 0 0 .112.026zm-7.625-.07a.261.261 0 0 0 .108-.022 9.256 9.256 0 0 1 2.44-.722.262.262 0 1 0-.075-.519 9.803 9.803 0 0 0-2.58.76.262.262 0 1 0 .107.503zm4.07-2.419a.263.263 0 0 0 .255-.323 28.249 28.249 0 0 0-.736-2.55.263.263 0 0 0-.498.169c.29.856.534 1.697.724 2.502.029.12.136.202.256.202zm-1.671-4.982a.261.261 0 0 0 .242-.365 44.311 44.311 0 0 0-1.111-2.402.263.263 0 0 0-.471.235c.4.801.769 1.6 1.097 2.373a.266.266 0 0 0 .243.16zm-2.341-4.709a.262.262 0 0 0 .228-.392 57.474 57.474 0 0 0-1.355-2.27.263.263 0 1 0-.445.28 57.65 57.65 0 0 1 1.342 2.25.265.265 0 0 0 .23.132zm-2.8-4.457a.263.263 0 0 0 .217-.413c-.921-1.33-1.562-2.136-1.568-2.144a.262.262 0 1 0-.411.328c.006.008.637.8 1.547 2.116a.264.264 0 0 0 .216.113z"/></g><g><path fill="#44474f" d="M347.435 121.918a.261.261 0 0 1 .02-.37c.009-.007.729-.647 1.925-1.8a.263.263 0 1 1 .364.379c-1.204 1.16-1.931 1.807-1.938 1.814a.26.26 0 0 1-.371-.023zm3.819-3.643a.264.264 0 0 1-.001-.372c.606-.61 1.223-1.243 1.835-1.882a.261.261 0 0 1 .37-.01c.107.1.11.267.01.372-.614.643-1.234 1.278-1.843 1.89a.265.265 0 0 1-.371.001zm3.647-3.8a.263.263 0 0 1-.015-.372 138.4 138.4 0 0 0 1.762-1.95.264.264 0 0 1 .37-.022.264.264 0 0 1 .023.37c-.578.653-1.173 1.312-1.768 1.958a.266.266 0 0 1-.372.016zm3.5-3.933a.263.263 0 0 1-.03-.37c.57-.666 1.138-1.344 1.688-2.015a.263.263 0 0 1 .37-.037.263.263 0 0 1 .036.37c-.553.674-1.122 1.354-1.692 2.023a.265.265 0 0 1-.371.029zm3.347-4.063a.263.263 0 0 1-.044-.37c.542-.687 1.08-1.387 1.603-2.08a.263.263 0 0 1 .42.317c-.525.695-1.066 1.398-1.61 2.089a.263.263 0 0 1-.37.044zm3.174-4.198a.264.264 0 0 1-.06-.367 114.87 114.87 0 0 0 1.506-2.15.263.263 0 1 1 .433.297c-.49.717-.998 1.444-1.512 2.16a.26.26 0 0 1-.367.06zm2.974-4.34a.264.264 0 0 1-.078-.363 90.88 90.88 0 0 0 1.39-2.224.265.265 0 0 1 .362-.088.262.262 0 0 1 .089.36 94.055 94.055 0 0 1-1.4 2.237.263.263 0 0 1-.363.079zm2.735-4.49a.262.262 0 0 1-.098-.357 80.5 80.5 0 0 0 1.252-2.302.262.262 0 1 1 .466.243 81.636 81.636 0 0 1-1.261 2.318.26.26 0 0 1-.23.133.255.255 0 0 1-.13-.034zm2.45-4.654a.265.265 0 0 1-.123-.351c.38-.795.745-1.6 1.085-2.39a.263.263 0 0 1 .483.207c-.343.798-.71 1.608-1.093 2.41a.262.262 0 0 1-.237.149.258.258 0 0 1-.114-.025zm3.639-3.5a.263.263 0 0 1 .219-.301 7.892 7.892 0 0 0 2.398-.804.263.263 0 1 1 .242.466 8.423 8.423 0 0 1-2.558.858.264.264 0 0 1-.301-.219zm-2.404.147a8.749 8.749 0 0 1-2.516-.975.263.263 0 1 1 .26-.456c.777.44 1.572.75 2.364.917a.262.262 0 1 1-.108.514zm.86-1.475a.262.262 0 0 1-.152-.34c.313-.826.605-1.657.867-2.467a.264.264 0 0 1 .5.162 55.588 55.588 0 0 1-.876 2.492.262.262 0 0 1-.245.169.258.258 0 0 1-.094-.016zm6.243-.858a.264.264 0 0 1 .027-.371 15.128 15.128 0 0 0 1.788-1.86.263.263 0 0 1 .407.334c-.59.723-1.213 1.37-1.851 1.924a.262.262 0 0 1-.371-.027zm-11.778-.228a18.035 18.035 0 0 1-1.825-1.94.263.263 0 0 1 .407-.333 17.27 17.27 0 0 0 1.77 1.883.262.262 0 0 1 .019.37.26.26 0 0 1-.371.019zm15.176-3.756a.263.263 0 0 1-.085-.361c.44-.715.858-1.483 1.24-2.283a.263.263 0 1 1 .475.226 24.946 24.946 0 0 1-1.268 2.333.264.264 0 0 1-.362.085zm-8-.15a.264.264 0 0 1-.186-.322c.227-.853.428-1.71.597-2.543a.262.262 0 1 1 .515.105c-.171.844-.375 1.71-.604 2.573a.263.263 0 0 1-.321.187zm-10.548-.208a9.964 9.964 0 0 1-1.02-2.49.263.263 0 1 1 .509-.131c.21.818.536 1.612.966 2.359a.262.262 0 0 1-.228.394.262.262 0 0 1-.227-.132zm20.869-4.35a.261.261 0 0 1-.155-.336 31.04 31.04 0 0 0 .57-1.707c.076-.25.145-.507.203-.767a.264.264 0 0 1 .315-.2c.14.034.23.174.198.316-.062.272-.133.543-.212.802a31.047 31.047 0 0 1-.581 1.738.264.264 0 0 1-.338.155zm-21.945-.545a.262.262 0 0 1-.26-.265c.012-.875.133-1.77.358-2.66a.262.262 0 1 1 .509.129c-.215.85-.33 1.703-.341 2.537a.263.263 0 0 1-.263.259zm12.695-.04a.262.262 0 0 1-.225-.296c.124-.912.21-1.785.258-2.594a.258.258 0 0 1 .278-.247.264.264 0 0 1 .247.278 34.62 34.62 0 0 1-.262 2.634.264.264 0 0 1-.296.225zm10.433-4.51a.262.262 0 0 1-.257-.268c.004-.128.006-.257.006-.386 0-.71-.051-1.447-.15-2.194a.263.263 0 0 1 .522-.07 17.515 17.515 0 0 1 .148 2.662.263.263 0 0 1-.263.257l-.006-.001zm-21.985-.536a.262.262 0 0 1-.121-.351c.388-.8.857-1.57 1.39-2.284a.263.263 0 0 1 .422.315 13.57 13.57 0 0 0-1.34 2.198.265.265 0 0 1-.351.122zm11.854-.192a.263.263 0 0 1-.262-.246c-.06-.952-.193-1.805-.4-2.534a.265.265 0 0 1 .18-.326.264.264 0 0 1 .326.182c.216.766.357 1.656.418 2.646a.262.262 0 0 1-.246.278zm-8.8-4.05a.262.262 0 0 1 .023-.37c.724-.641 1.473-1.15 2.228-1.513a.263.263 0 0 1 .228.474c-.711.342-1.42.824-2.107 1.432a.26.26 0 0 1-.371-.022zm18.022-.613a23.602 23.602 0 0 0-.807-2.47.262.262 0 1 1 .49-.19c.326.84.604 1.69.825 2.525a.262.262 0 0 1-.254.33.263.263 0 0 1-.254-.195zm-11.014-.327a3.018 3.018 0 0 0-2.125-1.023.263.263 0 0 1-.247-.277.258.258 0 0 1 .278-.247c.98.055 1.814.458 2.482 1.193a.262.262 0 1 1-.388.354zm9.146-4.52a28.502 28.502 0 0 0-1.281-2.266.263.263 0 0 1 .446-.28c.472.754.91 1.53 1.304 2.31a.262.262 0 1 1-.47.237zm-2.757-4.412a31.685 31.685 0 0 0-1.655-2.013.263.263 0 1 1 .39-.35 30.938 30.938 0 0 1 1.684 2.047.262.262 0 1 1-.42.316zm-3.474-3.88a30.616 30.616 0 0 0-1.97-1.703.263.263 0 1 1 .327-.412c.689.547 1.364 1.13 2.004 1.734.106.1.11.266.01.37a.262.262 0 0 1-.371.012zm-4.078-3.231A28.902 28.902 0 0 0 373 46.226a.263.263 0 0 1 .249-.463c.77.416 1.536.873 2.275 1.36.12.08.154.243.074.364a.26.26 0 0 1-.364.076zm-4.578-2.466a27.966 27.966 0 0 0-2.44-.908.263.263 0 0 1 .16-.5c.837.267 1.673.578 2.486.924a.264.264 0 0 1 .138.345.262.262 0 0 1-.344.139zm-4.951-1.584a27.984 27.984 0 0 0-2.563-.437.263.263 0 0 1 .063-.521c.875.107 1.754.257 2.614.445a.263.263 0 0 1-.114.513zm-8.038-.838a.263.263 0 0 1 .247-.278c.885-.054 1.78-.068 2.65-.041.145.004.26.125.255.27a.263.263 0 0 1-.27.255 29.06 29.06 0 0 0-2.603.04h-.016a.263.263 0 0 1-.263-.246z"/></g><g><path fill="#33353b" d="M272.88 244.248c3.628 1.445 5.158.713 5.715-.72.557-1.433-.07-3.024-3.697-4.469-6.608-2.63-10.81-1.308-10.81-1.308s2.09 3.828 8.793 6.497z"/></g><g><path fill="#33353b" d="M279.51 266.274c3.53 1.694 5.107 1.074 5.757-.314.65-1.388.128-3.017-3.403-4.712-6.43-3.088-10.715-2.068-10.715-2.068s1.837 3.96 8.36 7.094z"/></g><g><path fill="#33353b" d="M283.666 332.599l.716-.18c-.028-.11-2.733-11.338-1.569-28.591 1.075-15.918 5.755-40.371 21.96-66.457l-.625-.396c-16.294 26.23-20.997 50.822-22.072 66.834-1.167 17.36 1.562 28.677 1.59 28.79z"/></g><g><path fill="#33353b" d="M291.196 263.792l.377-.337c-12.178-13.849-9.236-33.45-9.206-33.647l-.498-.082c-.03.198-3.012 20.034 9.327 34.066z"/></g><g><path fill="#33353b" d="M298.284 255.39c7.396-1.163 12.396-5.781 12.453-5.835l-.502-.545c-.063.06-6.474 5.966-15.444 5.9l-.003.744a21.593 21.593 0 0 0 3.496-.263z"/></g><g><path fill="#33353b" d="M304.614 233.195c-3.3 4.115-3.318 6.127-2.13 7.1 1.188.97 3.132.534 6.432-3.58 6.011-7.497 6.766-12.878 6.766-12.878s-4.968 1.754-11.068 9.358z"/></g><g><path fill="#33353b" d="M308.411 247.485c-4.379 2.916-4.998 4.826-4.154 6.113.842 1.287 2.83 1.463 7.208-1.452 7.976-5.31 10.304-10.208 10.304-10.208s-5.265.16-13.358 5.547z"/></g><g><path fill="#33353b" d="M288.995 244.852c-.282 3.92.868 5.18 2.391 5.296 1.522.116 2.84-.955 3.123-4.875.514-7.141-1.994-10.803-1.994-10.803s-2.999 3.137-3.52 10.382z"/></g><g><path fill="#33353b" d="M280.499 227.853c-.279 3.616.482 4.76 1.523 4.845 1.042.085 1.969-.921 2.248-4.537.508-6.586-1.132-9.923-1.132-9.923s-2.124 2.933-2.639 9.615z"/></g><g><path fill="#91b3fa" d="M278.772 325.396s19.2-72.354 38.446-66.355c19.248 5.998-23.503 45.604-28.43 66.845z"/></g><g><path fill="#91b3fa" d="M281.697 323.377s49.14-73.684 72.505-58.985c23.366 14.699-45.986 41.743-59.48 63.668z"/></g><g><path fill="#33353b" d="M289.134 326.165c17.289-29.264 56.333-51.909 56.726-52.135l-.546-.97c-.395.225-39.691 23.014-57.132 52.534z"/></g><g><path fill="#fff2e2" d="M76.965 304.075c.349.252.702.502 1.064.746a36.965 36.965 0 0 0 7.72 3.958c2.962 1.1 4.746 3.195 6.082 5.596.04.064.073.133.113.203 1.952 3.593 2.962 7.813 5.448 10.351.177.177.359.35.553.511 1.53 1.294 3.589 1.997 6.619 1.693 10.147-1.027 11.188-2.113 13.982.812.169.173.339.362.522.565.507.572 1.084 1.261 1.782 2.092 0 0 .49 1.112 1.903 1.155 3.966.347 14.273-3.917 26.08-10.867.22-.128.433-.256.652-.383a184.866 184.866 0 0 0 3.8-2.32c3.816-2.389 7.372-4.8 10.546-7.133-.518-2.668-1.957-6.7-5.967-9.683-1.47-1.096-3.293-2.047-5.541-2.736-11.95-3.655-16.646 1.244-24.21-13.73-.086-.168-.171-.34-.258-.517l-.212-.427c-7.853-16.127-23.98 3.074-32.231 1.136-8.252-1.937-15.276-5.5-22.968 2.442-5.408 5.588-1.712 11.934 4.52 16.536z"/></g><g><path fill="#33353b" d="M70.787 291.018c11.837 1.977 22.23 4.519 31.255 7.287.294.089.584.18.875.272 13.26 4.129 23.5 8.743 30.951 12.726.218.118.431.235.642.348 8.113 4.398 12.786 7.984 14.324 9.24.22-.128.432-.257.65-.384-2.109-1.751-12.77-10.077-33.384-18.087-.23-.091-.463-.18-.697-.27-11.643-4.47-26.394-8.82-44.505-11.842z"/></g><g><path fill="#33353b" d="M118.12 295.256c8.103-5.494 10.066-10.496 10.146-10.706l-.67-.262c-.02.05-1.986 5.015-9.882 10.369z"/></g><g><path fill="#33353b" d="M115.84 302.776c2.512-3.302 3.01-8.505 1.44-15.049-1.174-4.9-3.113-8.888-3.132-8.928l-.644.313c.076.155 7.538 15.632 1.765 23.224z"/></g><g><path fill="#33353b" d="M101.575 299.472c.957-.6 1.485-1.003 1.51-1.021l-.444-.572c-.11.086-11.235 8.563-25.653 6.055l-.116.71c11.617 2.02 21.138-2.94 24.703-5.172z"/></g><g><path fill="#33353b" d="M92.265 314.958c3.797-3.225 5.23-6.784 5.767-9.202.583-2.632.263-4.484.25-4.56l-.707.12c.012.072 1.174 7.186-5.777 13.09z"/></g><g><path fill="#33353b" d="M122.549 326.69c9.036-5.66 12.078-15.371 12.11-15.481l-.686-.216c-.036.12-3.811 12.137-15.456 16.968l.278.667a25.37 25.37 0 0 0 3.754-1.938z"/></g><g><path fill="#c2c68e" d="M130.228 319.01l.312-.645c-3.627-1.786-10.283-3.07-21.384.959-6.605 2.397-11.744 5.593-11.795 5.625l.385.613c.2-.126 20.302-12.545 32.483-6.551z"/></g><g><path fill="#fff2e2" d="M236.613 265.528c.05.393.102.786.164 1.183a33.943 33.943 0 0 0 2.165 7.663c1.112 2.677.818 5.187.04 7.586-.017.066-.043.131-.065.202-1.196 3.557-3.4 6.875-3.553 10.133-.009.228-.01.46.003.691.086 1.837.9 3.661 3 5.507 7.031 6.18 8.412 6.2 8.192 9.905-.01.222-.03.455-.052.703-.068.7-.17 1.52-.293 2.506 0 0-.44 1.025.414 2.002 2.245 2.883 11.553 7.145 23.605 10.738.223.068.443.13.665.198 1.282.378 2.597.746 3.937 1.105a159.368 159.368 0 0 0 11.385 2.63c1.47-2.017 3.281-5.505 2.78-10.064-.184-1.673-.685-3.493-1.625-5.434-5.014-10.316-11.242-10.412-5.906-24.857l.186-.496c.052-.134.104-.272.155-.41 5.932-15.358-17.055-14.196-20.91-20.953-3.855-6.758-5.85-13.707-15.997-13.912-7.137-.143-9.093 6.31-8.29 13.374z"/></g><g><path fill="#33353b" d="M241.53 253.215c6.068 9.192 10.857 17.768 14.637 25.563.124.253.244.505.364.758 5.513 11.494 8.812 21.26 10.792 28.759.058.22.112.437.168.649 2.114 8.203 2.625 13.584 2.742 15.404.223.067.443.13.665.197-.14-2.513-1.209-14.883-8.71-33.745a65.024 65.024 0 0 0-.254-.638c-4.274-10.62-10.57-23.254-19.859-37.316z"/></g><g><path fill="#33353b" d="M268.267 287.68c8.758 2.012 13.347.205 13.538.128l-.244-.615c-.045.018-4.611 1.8-13.146-.16z"/></g><g><path fill="#33353b" d="M261.787 290.849c3.788-.376 7.597-3.295 11.015-8.44 2.56-3.852 4.028-7.648 4.043-7.686l-.614-.236c-.056.147-5.795 14.837-14.506 15.702z"/></g><g><path fill="#33353b" d="M255.09 279.193c1.002.27 1.604.372 1.63.376l.108-.654c-.127-.02-12.778-2.2-20.105-13.459l-.55.366c5.904 9.072 15.189 12.371 18.918 13.371z"/></g><g><path fill="#33353b" d="M238.862 282.616c4.54.536 7.83-.725 9.79-1.876 2.133-1.254 3.178-2.625 3.222-2.684l-.524-.398c-.04.053-4.095 5.281-12.409 4.3z"/></g><g><path fill="#33353b" d="M249.906 310.305c9.453 2.535 17.882-1.49 17.976-1.537l-.284-.596c-.104.05-10.54 5.025-21.067.217l-.274.604c1.223.558 2.445.989 3.65 1.312z"/></g><g><path fill="#33353b" d="M259.867 310.667l.63-.195c-1.067-3.555-4.365-8.83-14.013-13.774-5.738-2.94-11.098-4.397-11.152-4.412l-.172.642c.211.056 21.123 5.804 24.707 17.74z"/></g><g><path fill="#91b3fa" d="M337.14 330.438c0 10.413-56.065 18.853-125.225 18.853S86.69 340.85 86.69 330.438c0-10.412 56.064-18.853 125.224-18.853s125.225 8.44 125.225 18.853z"/></g><g><path fill="#c97e67" d="M178.7 149.083s3.064-5.805 6.796-6.725c3.731-.919 9.235.822 7.001 1.788-1.146.496-2.368.465-3.378.74-1.22.332-1.989.904-1.989.904s4.632-.768 4.79.582c.13 1.116-4.86 2.627-4.86 2.627s5.71-.966 4.742.488-4.704 2.268-4.704 2.268 7.674-.114 6.51 1.548c-1.165 1.663-6.342.053-6.818 1.748-.477 1.693-.388 7.616-5.258 6.866z"/></g><g><path fill="#33353b" d="M193.257 319.937s-.202 3.88-2.86 4.904c-2.656 1.025-10.295 1.808-7.518 4.38 1.594 1.478 9.31.759 11.482.818 2.172.058 4.186 1.06 5.839-.35 1.819-1.551.258-9.56.258-9.56s-1.9.927-3.585.838c-2.427-.13-3.616-1.03-3.616-1.03z"/></g><g><path fill="#5000b7" d="M174.196 222.121c.508 8.056 1.467 18.512 3.241 31.3 3.383 24.376 7.49 48.96 9.512 60.746.724 4.217 4.168 7.378 8.344 7.658l2.243.151c4.515.303 8.288-3.48 8.083-8.105l-3.534-79.47-.335-12.64s-28.386-12.859-27.554.36z"/></g><g><path fill="#33353b" d="M218.14 320.608s-.201 3.88-2.857 4.904c-2.658 1.025-10.297 1.808-7.52 4.38 1.594 1.478 9.31.76 11.482.819 2.172.057 4.186 1.059 5.839-.351 1.819-1.551.258-9.558.258-9.558s-1.9.925-3.585.836c-2.427-.13-3.616-1.03-3.616-1.03z"/></g><g><path fill="#5000b7" d="M198.633 202.815s-.997 17.51 3.688 51.276c3.383 24.377 7.49 48.96 9.512 60.747.724 4.217 4.168 7.378 8.344 7.66l2.244.15c4.515.303 8.287-3.48 8.082-8.104l-3.533-79.471-.694-26.144z"/></g><g><path fill="#33353b" d="M203.417 260.963l-.337-.045c.02-.144 1.938-14.495 3.384-19.648 1.46-5.203 8.176-9.691 8.244-9.736l.187.283c-.067.044-6.678 4.464-8.104 9.543-1.44 5.131-3.355 19.458-3.374 19.603z"/></g><g><path fill="#c97e67" d="M203.52 148.988l-1.748-5.239-.508-1.526-2.992-8.967-.394 8.92-.235 5.355-.074 1.694c-.051 1.152-.807 1.393-1.726 2.393-.372.405-2.755 2.861-.051 3.971 3.37 1.382 9.667-.71 12.062-3.453-.02-.003-3.77-1.455-4.333-3.148z"/></g><g><path fill="#c97e67" d="M190.219 135.565c.744-5.262 5.156-9.063 9.856-8.49 4.7.572 7.907 5.302 7.163 10.565-.745 5.264-5.158 9.065-9.857 8.492-4.7-.573-7.906-5.303-7.162-10.566z"/></g><g><path fill="#33353b" d="M193.895 133.256c-4.907.17-7.287-2.458-7.344-4.893-.071-3.122 2.045-5.886 4.51-4.726 2.464 1.16 1.406-1.685 3.776-1.987 4.43-.565 5.26 2.36 8.885 2.502 4.781.188 10.233 7.586 6.226 12.986 0 0-12.178-4.017-16.053-3.882z"/></g><g><path fill="#33353b" d="M189.526 130.107s5.242 4.687 4.551 7.325c-.692 2.638-.517 3.671 2.546 5.078 3.062 1.408.358 3.692 4.44 3.857 4.08.165 9.08-4.314 9.077-11.675 0-4.105-2.539-6.79-2.539-6.79z"/></g><g><path fill="#c97e67" d="M191.43 137.316c.595-.783 1.688-1.018 2.44-.524.754.493.883 1.527.289 2.31-.594.782-1.687 1.017-2.44.524-.753-.493-.882-1.527-.288-2.31z"/></g><g><path fill="#33353b" d="M211.915 139.167a.122.122 0 0 1-.119-.094c-.236-.989-1.257-1.559-1.267-1.564a.123.123 0 0 1-.049-.166.121.121 0 0 1 .165-.048c.046.024 1.125.625 1.388 1.722a.122.122 0 0 1-.118.15z"/></g><g><path fill="#33353b" d="M210.587 136.952a.122.122 0 0 1-.121-.114.122.122 0 0 1 .114-.129c.014 0 1.342-.09 1.53-1.04a.123.123 0 0 1 .145-.097.124.124 0 0 1 .096.144c-.227 1.135-1.694 1.232-1.756 1.236z"/></g><g><path fill="#33353b" d="M191.805 123.454c-.085 0-.173-.013-.264-.037-.407-.112-.711-.308-1.005-.497-.546-.353-1.02-.656-2.045-.349a.121.121 0 0 1-.152-.082.121.121 0 0 1 .08-.15c1.136-.34 1.702.023 2.249.376.279.18.567.364.938.467.202.055.376.03.532-.077.536-.367.662-1.529.663-1.54a.122.122 0 1 1 .242.026c-.005.051-.14 1.286-.767 1.716a.832.832 0 0 1-.471.147z"/></g><g><path fill="#33353b" d="M203.348 123.769c-1.732 0-3.082-1.168-3.145-1.223a.122.122 0 1 1 .162-.182c.015.013 1.626 1.404 3.504 1.123a.123.123 0 0 1 .138.102.12.12 0 0 1-.101.139c-.19.028-.376.04-.558.04z"/></g><g><path fill="#33353b" d="M192.742 139.969c-.202 0-.333-.04-.337-.04a.059.059 0 1 1 .036-.112c.045.014 1.111.33 1.863-1.064a.058.058 0 0 1 .08-.024.059.059 0 0 1 .023.08c-.538.995-1.25 1.16-1.665 1.16z"/></g><g><path fill="#33353b" d="M174.196 222.121s35.594-1.944 52.485 2.127l.252-4.815-23.684-7.013-19.123.47-5.874 1.252-4.146 6.402z"/></g><g><path fill="#fffff8" d="M223.523 163.468s-3.133-13.471-22.297-13.47c-33.396 0-24.03 27.24-27.12 70.546 0 0 21.532-4.666 52.689 1.544 0 0 3.034-23.453-.885-43.28-1.035-5.235-.848-10.788-2.387-15.34z"/></g><g><path fill="#fffff8" d="M197.38 149.997s-10.714.156-18.681 7.675c-7.965 7.518-18.225 17.877-20.402 23.835-2.68 7.338 2.254 14.7 8.52 14.856 6.266.157 11.882-4.386 11.882-4.386z"/></g><g><path fill="#fffff8" d="M179.665 147.495s-20.837 23.18-21.777 36.337c-.772 10.81 27.883-14.099 30.076-19.11 2.193-5.014-1.134-11.58-1.134-11.58z"/></g><g><path fill="#fffff8" d="M244.826 189.628c-3.133-23.184-29.536-36.277-29.536-36.277l-5.63 29.079 10.996 3.49c5.655 1.794 7.971 8.578 4.542 13.42-4.378 6.184-6.936 14.475-2.415 12.947 7.728-2.608 23.61-12.477 22.043-22.659z"/></g><g><path fill="#33353b" d="M164.415 179.813l-.209-.106c.112-.222 11.379-22.223 22.339-27.233l.098.214c-10.886 4.976-22.116 26.903-22.228 27.125z"/></g><g><path fill="#33353b" d="M227.786 211.524l-.235-.014c.93-16.987-2.078-34.378-2.108-34.55l.232-.04c.03.172 3.042 17.59 2.111 34.604z"/></g><g><path fill="#33353b" d="M174.985 194.421l-.119-.202c6.295-3.713 14.487-13.497 14.57-13.595l.18.151c-.082.098-8.3 9.912-14.63 13.646z"/></g><g><path fill="#f9b170" d="M254.333 102.193a1.645 1.645 0 1 1 3.29-.001 1.645 1.645 0 0 1-3.29.001z"/></g><g><path fill="#f9b170" d="M199.597 47.456a1.645 1.645 0 1 1 3.29 0 1.645 1.645 0 0 1-3.29 0z"/></g><g><path fill="#f9b170" d="M125.686 93.204a1.645 1.645 0 1 1 3.29 0 1.645 1.645 0 0 1-3.29 0z"/></g><g><path fill="#f9b170" d="M160.751 140.991a1.645 1.645 0 1 1 3.29 0 1.645 1.645 0 0 1-3.29 0z"/></g><g><path fill="#f9b170" d="M206.209 112.541a1.645 1.645 0 1 1 3.29 0 1.645 1.645 0 0 1-3.29 0z"/></g><g><path fill="#f9b170" d="M217.365 129.548a1.646 1.646 0 1 1 0 0z"/></g><g><path fill="#f9b170" d="M68.183 123.05a1.645 1.645 0 1 1 3.29 0 1.645 1.645 0 0 1-3.29 0z"/></g><g><path fill="#f9b170" d="M355.057 130.468a.234.234 0 0 1-.17-.397c1.573-1.642 4.612-1.958 5.583-2.018-.812-2.641-3.836-4.652-3.867-4.673a.233.233 0 0 1-.067-.325.234.234 0 0 1 .325-.067c.139.09 3.424 2.277 4.14 5.23a.23.23 0 0 1-.041.2.234.234 0 0 1-.18.092c-.04 0-3.841.099-5.553 1.886a.236.236 0 0 1-.17.072z"/></g><g><path fill="#f9b170" d="M357.99 46.422a.232.232 0 0 1-.112-.028c-.148-.08-3.602-1.987-4.562-4.871a.233.233 0 0 1 .026-.202.231.231 0 0 1 .172-.106c.038-.004 3.82-.417 5.378-2.34a.235.235 0 0 1 .365.296c-1.432 1.767-4.435 2.333-5.396 2.473 1.027 2.56 4.208 4.319 4.241 4.337a.235.235 0 0 1-.113.44z"/></g><g><path fill="#f9b170" d="M255.613 64.147a.239.239 0 0 1-.126-.036c-.14-.09-3.459-2.224-4.225-5.166a.235.235 0 0 1 .219-.294c.04-.001 3.84-.16 5.523-1.973a.235.235 0 0 1 .344.32c-1.547 1.666-4.58 2.03-5.549 2.104.852 2.625 3.908 4.592 3.94 4.612a.235.235 0 1 1-.126.433z"/></g><g><path fill="#f9b170" d="M50.66 41.484a.235.235 0 0 1-.23-.186c-.478-2.222.964-4.917 1.46-5.753-2.64-.807-6.004.568-6.039.583a.235.235 0 0 1-.18-.434c.154-.064 3.805-1.559 6.654-.498a.239.239 0 0 1 .142.146.24.24 0 0 1-.027.203c-.02.031-2.07 3.235-1.55 5.655a.233.233 0 0 1-.23.284z"/></g><g><path fill="#f9b170" d="M18.693 161.41a.234.234 0 0 1-.233-.208c-.004-.037-.447-3.645-2.439-5.555-.489.84-2.136 3.414-4.309 4.083a.236.236 0 0 1-.293-.156.234.234 0 0 1 .155-.293c2.368-.728 4.161-4.08 4.18-4.114a.225.225 0 0 1 .162-.12.232.232 0 0 1 .196.05c2.317 1.968 2.795 5.885 2.814 6.05a.234.234 0 0 1-.233.263z"/></g><g><path fill="#f9b170" d="M64.313 216.175a.235.235 0 0 1-.201-.355c.018-.034 1.873-3.16 1.464-5.887-.9.365-3.777 1.396-5.906.596a.233.233 0 0 1-.136-.302.233.233 0 0 1 .3-.137c2.322.87 5.79-.686 5.824-.703a.237.237 0 0 1 .203.004.238.238 0 0 1 .124.16c.63 2.976-1.385 6.367-1.471 6.51a.233.233 0 0 1-.201.114z"/></g><g><path fill="#fff2e2" d="M194.356 150.309s.939-1.713 2.462-1.814c1.52-.102 6.947-.305 7.76 0 .81.303 1.774 1.499 1.723 1.814-.05.315-6.914 1.58-11.946 0z"/></g></g></svg>