<svg xmlns="http://www.w3.org/2000/svg" width="45" height="44" viewBox="0 0 45 44"><g><g><path fill="#414042" d="M.803 43.386a.735.735 0 0 1-.735-.734v-2.935c0-.406.33-.734.735-.734h3.95l-.862-1.722a3.667 3.667 0 0 1-2.355-3.415v-1.603a2.199 2.199 0 0 1-1.468-2.066c0-1.214.99-2.202 2.202-2.202h13.21c1.213 0 2.201.988 2.201 2.202 0 .955-.616 1.762-1.468 2.066v1.603a3.667 3.667 0 0 1-2.355 3.415l-.86 1.722h12.828l1.211-11.489-2.052 1.71a2.19 2.19 0 0 1-2.858-.034l-4.879-4.268-1.389-.833a2.745 2.745 0 0 1-1.318-2.03 2.73 2.73 0 0 1 .206-1.4v-2.938c0-.956.615-1.763 1.468-2.066v-3.07h-.735a2.204 2.204 0 0 1-2.2-2.202V5.96c0-1.213.986-2.2 2.2-2.2h2.936c1.214 0 2.202.987 2.202 2.2v4.404a2.205 2.205 0 0 1-2.202 2.201h-.734v3.071a2.197 2.197 0 0 1 1.468 2.066v1.986c.187.176.361.368.496.595l.8 1.332 2.991 2.394 2.478-3.097a.744.744 0 0 1 .3-.223l1.988-.795a6.592 6.592 0 0 1-2.45-5.128c0-1.105.292-2.194.827-3.169l.38-3.788c-1.183-.5-1.94-1.483-1.94-2.582 0-1.58 1.568-2.873 3.524-2.934A4.397 4.397 0 0 1 32.357.09a4.4 4.4 0 0 1 3.815 2.203c1.956.061 3.524 1.354 3.524 2.934 0 1.1-.758 2.081-1.939 2.582l.38 3.788c.534.975.825 2.064.825 3.17a6.595 6.595 0 0 1-2.449 5.128l1.99.795a.746.746 0 0 1 .37.33l4.403 8.073.003.011.01.012.628 1.257a2.462 2.462 0 0 1-3.373 3.264 2.45 2.45 0 0 1-1.24-1.682l-.299-1.49-1.203-1.805 1.087 10.324h4.476c.405 0 .734.328.734.734v2.935a.734.734 0 0 1-.734.734zM19.148 5.96a.734.734 0 0 0-.733-.733h-.734v5.87h.734a.734.734 0 0 0 .733-.733zm-2.935 5.137v-5.87h-.734a.735.735 0 0 0-.734.733v4.404c0 .404.33.733.734.733zM28.907 25.04h6.901l-1.082-4.113c-.029.011-.059.02-.088.03a6.193 6.193 0 0 1-.448.15c-.058.017-.117.03-.175.045-.14.036-.28.072-.423.1-.072.013-.145.021-.216.032-.133.021-.266.043-.4.056-.095.008-.19.01-.285.014-.112.006-.22.017-.334.017-.112 0-.22-.01-.333-.017-.094-.005-.189-.006-.284-.014-.136-.014-.267-.035-.4-.056-.073-.01-.145-.019-.217-.033-.143-.027-.283-.063-.423-.099-.059-.015-.117-.028-.175-.045a6.695 6.695 0 0 1-.447-.15c-.029-.01-.06-.019-.089-.03zm13.737 6.786a.98.98 0 0 0-.04-.797l-.365-.73-1.685.421.19.947a.99.99 0 0 0 1.341.727.98.98 0 0 0 .56-.568zm-4.933-9.872l-1.337-.534 1.065 4.05 2.58 3.87 1.514-.379zM26.487 5.226c0 .586.593 1.147 1.442 1.365a.732.732 0 0 1 .548.783l-.445 4.456h8.651l-.446-4.456a.734.734 0 0 1 .55-.784c.85-.217 1.441-.778 1.441-1.364 0-.796-1.007-1.468-2.2-1.468-.044 0-.084.005-.125.01l-.118.011a.74.74 0 0 1-.729-.443 2.932 2.932 0 1 0-5.395 0 .749.749 0 0 1-.73.443l-.119-.012c-.04-.004-.08-.009-.124-.009-1.193 0-2.2.672-2.2 1.468zm.734 9.54a5.14 5.14 0 0 0 3.426 4.838l.025.01a5.101 5.101 0 0 0 3.371 0l.024-.01a5.14 5.14 0 0 0 3.428-4.839 5.06 5.06 0 0 0-.218-1.467h-9.84c-.142.475-.216.97-.216 1.467zM16.214 17.7v1.455l.084-.028c.06-.022.121-.042.183-.06.146-.045.293-.08.445-.099.062-.009.125-.009.19-.012.127-.007.253-.006.381.004.04.004.08-.004.12.002.017.002.032.01.05.012l.014.001v-1.275a.736.736 0 0 0-.734-.734.736.736 0 0 0-.734.734zm-.217 4.16c.048.397.273.743.617.95l.953.571 1.392-1.39-.57-.955a1.301 1.301 0 0 0-.374-.394l-.01-.006a1.302 1.302 0 0 0-.395-.177l-.04-.009a1.311 1.311 0 0 0-.4-.03l-.03.002c-.136.014-.27.05-.396.106-.01.004-.02.011-.03.016a1.27 1.27 0 0 0-.348.243 1.144 1.144 0 0 0-.127.16 1.71 1.71 0 0 0-.096.16l-.01.014a1.266 1.266 0 0 0-.136.738zm11.306 3.5l1.037-3.942-1.403.561-2.814 3.518a.733.733 0 0 1-1.03.115l-3.158-2.526-1.18 1.183 4.337 3.795a.731.731 0 0 0 .953.011zm0 13.622h10.111L36.1 26.507h-7.485zM9.608 37.515v1.468h1.748l.735-1.468zM2.27 29.443a.735.735 0 0 0-.734.734c0 .404.33.733.734.733h13.21a.734.734 0 0 0 0-1.467zm.734 4.403c0 1.213.988 2.201 2.201 2.201h7.34a2.204 2.204 0 0 0 2.2-2.2v-1.469H3.005zm3.388 5.137H8.14v-1.468H5.66zm-4.856 2.935h41.096V40.45H1.536z"/></g></g></svg>