<svg xmlns="http://www.w3.org/2000/svg" width="30" height="37" viewBox="0 0 30 37"><g><g><path d="M19.114 29.843l-4.81-4.612a3.192 3.192 0 0 0-4.123-.28l-.005.006-.022.016a.08.08 0 0 1-.065.016.057.057 0 0 1-.044-.03 16.104 16.104 0 0 1-2.235-5.763 16.148 16.148 0 0 1 .083-6.185c.002-.007.006-.025.028-.038a.068.068 0 0 1 .06-.007l.032.01c1.5.439 3.09-.28 3.78-1.704l3.147-6.52a2.38 2.38 0 0 0-.472-2.732A6.549 6.549 0 0 0 4.294 3.199V3.2c-.428.632-.64 1.027-.96 1.623l-.069.127c-.076.142-1.89 3.5-2.338 5.866-.693 3.667-.63 7.46.18 10.967.855 3.705 2.482 7.002 4.834 9.798.597.71 1.703-.22 1.106-.93-2.204-2.62-3.73-5.712-4.534-9.193-.764-3.314-.823-6.901-.167-10.375.406-2.141 2.171-5.411 2.19-5.446l.07-.131c.28-.52.572-1.02.895-1.514l.005-.007a5.105 5.105 0 0 1 7.937-.948l.01.009a.937.937 0 0 1 .186 1.077l-3.148 6.52c-.38.787-1.252 1.185-2.07.946l-.029-.008a1.517 1.517 0 0 0-1.21.15c-.36.215-.617.573-.702.984a17.542 17.542 0 0 0-.092 6.735 17.568 17.568 0 0 0 2.434 6.278c.225.356.591.604 1.005.68.417.078.852-.025 1.196-.283l.02-.014a1.748 1.748 0 0 1 2.26.162l4.812 4.61c.587.564.598 1.514.213 2.188-.675 1.176-2.074 1.965-3.376 2.186a5.088 5.088 0 0 1-3.773-.842c-.76-.53-1.586.656-.824 1.186a6.524 6.524 0 0 0 4.837 1.08c1.731-.293 3.5-1.34 4.39-2.89l.015-.03c.706-1.23.563-2.916-.483-3.92z"/></g><g><path d="M21.73 6.681c4.284 0 7.77 3.486 7.77 7.771 0 4.284-3.486 7.77-7.77 7.77a7.71 7.71 0 0 1-4.332-1.319l-3.993-.209a.736.736 0 0 1-.653-.934l1.288-4.184a7.86 7.86 0 0 1-.081-1.124c0-4.285 3.485-7.77 7.77-7.77zm0 14.097a6.334 6.334 0 0 0 6.326-6.326 6.333 6.333 0 0 0-6.326-6.326 6.333 6.333 0 0 0-6.326 6.326c0 .422.19.983.066 1.39l-1.065 3.457 3.273.172c.137.007.27.054.382.134a6.283 6.283 0 0 0 3.67 1.173z"/></g><g><path d="M19.106 13.934a.73.73 0 0 0-.722.722.73.73 0 0 0 .722.722c.382 0 .704-.31.721-.69a.729.729 0 0 0-.72-.754z"/></g><g><path d="M8.413 32.554a.731.731 0 0 0-.723.723c0 .392.33.72.723.72a.729.729 0 0 0 .721-.69.731.731 0 0 0-.72-.753z"/></g><g><path d="M21.947 13.934a.729.729 0 0 0-.722.722.73.73 0 0 0 .722.722c.382 0 .704-.31.721-.69a.73.73 0 0 0-.72-.754z"/></g><g><path d="M24.788 13.934a.73.73 0 0 0-.722.722.73.73 0 0 0 .722.722c.382 0 .704-.31.721-.69a.729.729 0 0 0-.72-.754z"/></g></g></svg>