<svg xmlns="http://www.w3.org/2000/svg" width="40" height="40" viewBox="0 0 40 40"><g><g><path d="M24.953 10.96a4.953 4.953 0 1 1-3.058-4.576 4.952 4.952 0 0 1 3.058 4.577zm-8.733 0a3.78 3.78 0 1 0 2.334-3.492 3.78 3.78 0 0 0-2.334 3.493z"/></g><g><path d="M39.887 39.133a.586.586 0 0 1-.548.796H.662a.585.585 0 0 1-.548-.796l4.78-12.536a.586.586 0 0 1 .549-.377h9.05c-.055-.09-.11-.177-.165-.27-3.483-5.763-5.235-10.807-5.21-14.99C9.118 4.95 13.992.078 20.002.08c6.009 0 10.88 4.874 10.88 10.883.024 4.18-1.728 9.223-5.21 14.988l-.166.269h9.05c.244 0 .462.149.549.377zM10.292 10.96C10.24 19.3 18.03 29.574 20 32.037c1.969-2.464 9.759-12.74 9.709-21.073 0-5.361-4.345-9.71-9.707-9.71a9.708 9.708 0 0 0-9.71 9.707zm9.26 22.384a62.457 62.457 0 0 1-4.323-5.954h-5.193l6.535 8.49 18.332-6.52-.751-1.97H24.77a62.27 62.27 0 0 1-4.324 5.954.588.588 0 0 1-.894 0zm-7.563 5.41h19.743l-4.242-5.511-10.937 3.889h-.003zm-10.476 0h6.976l6.919-2.46-6.852-8.904H5.848zm36.975 0l-3.165-8.3-6.671 2.373 4.562 5.928z"/></g></g></svg>