<svg xmlns="http://www.w3.org/2000/svg" viewBox="0 0 342.77 260.83"><defs><style>.cls-1{fill:#231f20;}</style></defs><g id="Layer_2" data-name="Layer 2"><g id="icons"><path class="cls-1" d="M180.77,54.45A15.19,15.19,0,1,0,196,69.63,15.2,15.2,0,0,0,180.77,54.45Zm0,26.37A11.19,11.19,0,1,1,192,69.63,11.2,11.2,0,0,1,180.77,80.82ZM104.23,29.91a18.48,18.48,0,1,0,18.48,18.48A18.5,18.5,0,0,0,104.23,29.91Zm0,33a14.48,14.48,0,1,1,14.48-14.48A14.5,14.5,0,0,1,104.23,62.87ZM244.12,18.56a13.36,13.36,0,1,0,13.35,13.35A13.37,13.37,0,0,0,244.12,18.56Zm0,22.71a9.36,9.36,0,1,1,9.35-9.36A9.36,9.36,0,0,1,244.12,41.27Zm63,93.57H35.69a35.69,35.69,0,0,0-6.2,70.83v25.05a30.14,30.14,0,0,0,30.1,30.11H283.18a30.14,30.14,0,0,0,30.1-30.11V205.67a35.69,35.69,0,0,0-6.2-70.83Zm2.2,95.88a26.13,26.13,0,0,1-26.1,26.11H59.59a26.13,26.13,0,0,1-26.1-26.11v-24.5H309.28Zm-2.2-28.5H35.69a31.69,31.69,0,0,1,0-63.38H307.08a31.69,31.69,0,0,1,0,63.38ZM26.27,112.8c5.78,0,8.57,2.71,11.8,5.85s7.17,7,14.58,7,11.23-3.71,14.59-7,6-5.85,11.8-5.85,8.57,2.71,11.8,5.85,7.17,7,14.58,7,11.22-3.71,14.59-7,6-5.85,11.8-5.85,8.57,2.71,11.8,5.85,7.17,7,14.58,7,11.23-3.71,14.59-7,6-5.85,11.8-5.85,8.57,2.71,11.8,5.85,7.17,7,14.58,7,11.23-3.71,14.59-7,6-5.85,11.8-5.85,8.57,2.71,11.8,5.85,7.17,7,14.58,7,11.23-3.71,14.59-7,6-5.85,11.8-5.85,8.57,2.71,11.8,5.85,7.17,7,14.58,7a2,2,0,0,0,0-4c-5.78,0-8.57-2.71-11.79-5.85s-7.18-7-14.59-7-11.23,3.71-14.59,7-6,5.85-11.8,5.85-8.57-2.71-11.79-5.85c-3.37-3.27-7.18-7-14.59-7s-11.23,3.71-14.59,7-6,5.85-11.8,5.85-8.57-2.71-11.79-5.85-7.18-7-14.59-7-11.22,3.71-14.59,7-6,5.85-11.8,5.85-8.57-2.71-11.8-5.85-7.17-7-14.58-7-11.23,3.71-14.59,7-6,5.85-11.8,5.85-8.57-2.71-11.8-5.85-7.17-7-14.58-7-11.22,3.71-14.59,7-6,5.85-11.8,5.85-8.57-2.71-11.79-5.85-7.18-7-14.59-7a2,2,0,1,0,0,4Zm.22-14.07H316.28a2,2,0,0,0,2-2v-35A61.75,61.75,0,0,0,256.59,0H86.18A61.75,61.75,0,0,0,24.49,61.69v35A2,2,0,0,0,26.49,98.73Zm2-37A57.76,57.76,0,0,1,86.18,4H256.59a57.76,57.76,0,0,1,57.69,57.69v33H28.49Z"/></g></g></svg>