<svg xmlns="http://www.w3.org/2000/svg" viewBox="0 0 341.89 164.45"><defs><style>.cls-1{fill:#231f20;}</style></defs><g id="Layer_2" data-name="Layer 2"><g id="icons"><path class="cls-1" d="M317.84,52.55c-.22-16.68-4.63-29.63-24.2-38.5C272.49,4.46,233.5,0,171,0S69.41,4.46,48.25,14.05c-19.57,8.87-24,21.82-24.2,38.5a30.33,30.33,0,0,0,0,59.35c.22,16.68,4.63,29.63,24.2,38.5,21.16,9.58,60.15,14,122.7,14s101.54-4.47,122.7-14c19.56-8.87,24-21.82,24.19-38.51a30.33,30.33,0,0,0,0-59.34ZM49.9,17.7C70.52,8.35,109,4,171,4S271.37,8.35,292,17.7c17.45,7.9,21.53,19,21.84,34.19H28.06C28.37,36.69,32.45,25.6,49.9,17.7ZM292,146.75c-20.63,9.35-59.09,13.7-121,13.7s-100.43-4.35-121-13.7c-17.44-7.9-21.53-19-21.84-34.2H313.83C313.52,127.75,309.44,138.85,292,146.75Zm19.56-38.2H30.33a26.33,26.33,0,1,1,0-52.66H311.56a26.33,26.33,0,0,1,0,52.66Zm6-26.4c-4.9,0-7-2-10.72-5.66C302.42,72.19,296.36,66.3,285,66.3s-17.45,5.89-21.87,10.19c-3.75,3.65-5.81,5.66-10.71,5.66s-7-2-10.71-5.66c-4.42-4.3-10.47-10.19-21.87-10.19S202.37,72.19,198,76.49c-3.75,3.65-5.82,5.66-10.72,5.66s-7-2-10.71-5.66c-4.42-4.3-10.47-10.19-21.86-10.19s-17.45,5.89-21.87,10.19c-3.75,3.65-5.82,5.66-10.71,5.66s-7-2-10.71-5.66C107,72.19,100.9,66.3,89.5,66.3S72.06,72.19,67.64,76.49c-3.75,3.65-5.82,5.66-10.72,5.66s-7-2-10.71-5.66C41.79,72.19,35.74,66.3,24.35,66.3a8,8,0,0,0,0,16c4.89,0,7,2,10.71,5.66,4.42,4.3,10.47,10.19,21.86,10.19S74.37,92.26,78.79,88c3.75-3.65,5.82-5.66,10.71-5.66s7,2,10.71,5.66c4.42,4.3,10.47,10.19,21.87,10.19S139.53,92.26,144,88c3.75-3.65,5.81-5.66,10.71-5.66s7,2,10.71,5.66c4.42,4.3,10.47,10.19,21.86,10.19S204.68,92.26,209.1,88c3.75-3.65,5.82-5.66,10.71-5.66s7,2,10.71,5.66C235,92.26,241,98.15,252.39,98.15S269.84,92.26,274.26,88C278,84.31,280.07,82.3,285,82.3s7,2,10.71,5.66c4.42,4.3,10.47,10.19,21.87,10.19a8,8,0,0,0,0-16Zm0,12c-9.77,0-14.72-4.81-19.08-9.06-3.9-3.79-7-6.79-13.5-6.79s-9.6,3-13.5,6.79c-4.37,4.25-9.31,9.06-19.08,9.06s-14.71-4.81-19.08-9.06c-3.9-3.79-7-6.79-13.5-6.79s-9.6,3-13.5,6.79c-4.36,4.25-9.31,9.06-19.08,9.06s-14.71-4.81-19.08-9.06c-3.89-3.79-7-6.79-13.49-6.79s-9.6,3-13.5,6.79c-4.37,4.25-9.31,9.06-19.08,9.06S107.36,89.34,103,85.09c-3.9-3.79-7-6.79-13.5-6.79s-9.6,3-13.5,6.79c-4.36,4.25-9.3,9.06-19.08,9.06s-14.71-4.81-19.07-9.06c-3.9-3.79-7-6.79-13.5-6.79a4,4,0,0,1,0-8c9.77,0,14.71,4.81,19.07,9.06,3.9,3.79,7,6.79,13.5,6.79s9.61-3,13.51-6.79c4.36-4.25,9.3-9.06,19.07-9.06s14.72,4.81,19.08,9.06c3.9,3.79,7,6.79,13.5,6.79s9.6-3,13.5-6.79c4.36-4.25,9.31-9.06,19.08-9.06s14.71,4.81,19.07,9.06c3.9,3.79,7,6.79,13.5,6.79s9.61-3,13.51-6.79c4.36-4.25,9.3-9.06,19.07-9.06s14.72,4.81,19.08,9.06c3.9,3.79,7,6.79,13.5,6.79s9.6-3,13.5-6.79c4.36-4.25,9.31-9.06,19.08-9.06s14.71,4.81,19.07,9.06c3.91,3.79,7,6.79,13.51,6.79a4,4,0,0,1,0,8Z"/></g></g></svg>