<svg xmlns="http://www.w3.org/2000/svg" width="24" height="24" viewBox="0 0 24 24"><g><g><path d="M11.888.583c6.262 0 11.356 5.094 11.356 11.356S18.15 23.296 11.888 23.296.532 18.201.532 11.94 5.626.583 11.888.583zm0 21.235c5.447 0 9.879-4.432 9.879-9.879 0-5.447-4.432-9.879-9.88-9.879-5.446 0-9.878 4.432-9.878 9.88 0 5.446 4.432 9.878 9.879 9.878z"/></g><g><path d="M16.52 13.79a.74.74 0 0 0-1.02.224 3.842 3.842 0 0 1-3.252 1.782 3.862 3.862 0 0 1-3.857-3.857 3.861 3.861 0 0 1 3.857-3.856c1.283 0 2.48.636 3.198 1.701a.738.738 0 1 0 1.224-.827 5.33 5.33 0 0 0-4.422-2.352 5.34 5.34 0 0 0-5.333 5.334 5.339 5.339 0 0 0 5.333 5.334c1.83 0 3.51-.92 4.496-2.462a.739.739 0 0 0-.224-1.021z"/></g></g></svg>