<svg xmlns="http://www.w3.org/2000/svg" width="22" height="17" viewBox="0 0 22 17"><g><g><path fill="#414042" d="M10.898.687c.037 0 4.443.036 7.357.254h.146c.4.038 1.129.11 1.748.838.437.51.656 1.676.728 2.077.037.072.219 1.893.219 3.64V9.21c0 1.82-.22 3.643-.22 3.643-.071.4-.29 1.565-.763 2.075-.62.728-1.348.802-1.75.838h-.108c-2.914.218-7.32.218-7.357.218-.036 0-5.5-.073-7.102-.254-.11 0-.218-.037-.328-.037-.51-.037-1.238-.145-1.82-.801-.438-.474-.693-1.64-.73-2.04C.919 12.816.7 10.995.7 9.21V7.497c0-1.82.219-3.641.219-3.641.036-.401.29-1.567.729-2.077.655-.728 1.347-.8 1.784-.838h.109C6.455.723 10.86.687 10.898.687zm0 16.025c.037 0 4.48 0 7.43-.328h.11c.509-.036 1.42-.146 2.22-1.056.728-.764.947-2.404.947-2.476 0 0 .218-1.858.218-3.715V7.425c0-1.821-.218-3.68-.218-3.715 0-.073-.219-1.676-.91-2.44C19.856.359 18.945.25 18.472.213h-.146c-2.95-.218-7.357-.255-7.43-.255-.036 0-4.479.037-7.393.328h-.109c-.51.036-1.42.146-2.222 1.057-.729.765-.947 2.403-.947 2.476 0 0-.219 1.858-.219 3.715v1.71c0 1.822.22 3.68.22 3.717 0 .072.217 1.675.91 2.439.764.875 1.675.984 2.258 1.057.11 0 .182 0 .291.036 1.675.146 6.993.219 7.211.219z"/></g><g><path fill="#414042" d="M14.54 8.699L8.711 11.94V5.276zm-6.192 4.225c.073 0 .11 0 .182-.036l6.92-3.86a.386.386 0 0 0 0-.657L8.53 4.329a.33.33 0 0 0-.364 0 .38.38 0 0 0-.182.327v7.904a.38.38 0 0 0 .182.328c.073.036.11.036.182.036z"/></g></g></svg>